{"glyphs":{"0":{"ha":936,"x_min":0,"x_max":663,"o":"m 332 971 q 460 933 400 971 q 565 828 521 894 q 636 674 610 763 q 663 485 663 585 q 636 296 663 385 q 565 141 610 207 q 460 37 521 75 q 332 -1 400 -1 q 313 -1 322 -1 q 296 1 304 0 l 294 1 q 199 39 244 10 q 165 64 181 50 q 133 96 149 78 q 17 332 49 188 q 0 485 0 407 q 26 674 0 585 q 97 828 53 763 q 202 933 142 894 q 332 971 263 971 m 360 243 l 579 658 q 492 819 550 754 q 360 896 433 883 l 360 243 m 360 135 l 597 583 q 585 640 593 614 l 360 215 l 360 135 m 333 71 q 439 106 389 72 q 526 194 489 139 q 584 325 563 250 q 606 485 606 400 q 603 530 606 508 q 599 574 601 551 l 333 71 m 201 44 q 243 24 222 32 l 329 186 l 331 914 q 224 868 274 906 q 138 772 175 831 q 81 635 101 713 q 60 472 60 558 q 83 304 60 386 q 113 319 92 319 q 138 309 128 319 q 149 283 149 299 q 138 258 149 268 q 113 247 128 247 q 92 254 101 247 q 79 272 82 261 q 47 472 47 368 q 69 641 47 561 q 130 782 92 721 q 219 881 168 843 q 331 928 271 919 l 332 964 q 206 926 265 964 q 102 824 146 889 q 33 671 58 758 q 7 485 7 583 q 24 335 7 406 q 138 100 56 190 q 169 69 153 83 q 201 44 185 56 m 329 78 l 329 158 l 256 18 q 274 13 265 15 q 293 8 283 11 l 329 78 m 332 6 q 458 43 399 6 q 560 146 517 81 q 630 298 604 211 q 656 485 656 385 q 633 661 656 578 q 569 809 610 744 q 476 914 529 874 q 360 963 422 954 l 360 929 l 360 922 q 467 877 418 914 q 553 782 517 840 q 611 647 590 724 q 632 485 632 571 q 609 315 632 394 q 546 177 586 236 q 451 82 506 118 q 336 44 397 46 l 318 44 l 299 7 q 315 6 307 6 q 332 6 324 6 z "},"1":{"ha":499,"x_min":0,"x_max":483,"o":"m 483 53 l 483 0 l 279 0 l 240 0 l 189 0 l 182 0 l 182 1 l 240 104 l 240 810 l 128 597 l 121 597 l 240 824 l 240 882 l 89 597 l 43 597 l 240 969 l 240 972 l 279 972 l 279 172 l 408 400 l 408 972 l 419 972 l 419 525 l 419 518 l 419 419 l 474 514 l 479 511 l 419 406 l 419 53 l 483 53 m 240 53 l 219 53 l 240 90 l 240 53 m 408 386 l 279 158 l 279 97 l 408 328 l 408 386 m 11 597 l 0 597 l 199 971 l 207 967 l 11 597 m 481 819 q 471 791 481 803 q 447 779 461 779 l 447 857 q 471 846 461 857 q 481 819 481 835 m 481 933 q 471 906 481 917 q 447 894 461 894 l 447 972 q 471 960 461 972 q 481 933 481 949 m 481 700 q 471 672 481 683 q 447 661 461 661 l 447 739 q 471 727 461 739 q 481 700 481 715 m 253 110 l 208 47 l 279 31 l 253 110 z "},"2":{"ha":775,"x_min":0,"x_max":651,"o":"m 13 0 l 8 0 l 7 0 l 8 3 l 465 808 q 401 846 436 832 q 326 860 365 860 q 206 824 260 860 q 128 726 153 789 l 78 747 q 177 869 110 824 q 326 914 244 914 q 492 856 421 914 l 514 894 q 426 942 474 925 q 326 958 379 958 q 209 935 264 958 q 113 873 154 913 q 44 780 71 833 q 14 664 18 726 q 53 681 28 681 q 89 665 74 681 q 104 629 104 650 q 89 592 104 607 q 53 576 74 576 q 15 592 31 576 q 0 629 0 607 q 26 760 0 697 q 96 869 51 822 q 199 944 140 917 q 326 972 258 972 q 431 956 381 972 q 521 907 481 939 l 558 874 q 627 769 603 829 q 651 642 651 710 l 639 642 q 615 763 639 707 q 551 861 592 818 l 528 821 q 565 765 551 794 q 594 642 594 708 l 540 642 q 517 742 540 696 q 509 756 514 749 q 499 771 504 764 l 125 110 l 589 110 l 589 174 l 646 174 l 646 67 l 646 57 l 646 0 l 14 0 l 13 0 m 497 851 q 524 826 510 842 l 546 867 q 533 879 539 874 q 519 890 526 885 l 497 851 m 92 67 l 113 103 l 117 110 l 494 776 q 469 804 483 793 l 51 67 l 92 67 m 589 96 l 117 96 l 100 67 l 589 67 l 589 96 z "},"3":{"ha":768,"x_min":0,"x_max":544,"o":"m 489 506 q 530 421 515 467 q 544 325 544 375 q 519 199 544 258 q 449 95 493 139 q 346 26 406 51 q 219 0 286 0 l 38 0 l 38 1 l 38 40 l 38 118 l 94 118 l 94 72 l 350 522 q 219 561 292 561 l 219 572 q 356 531 294 572 l 374 563 q 219 608 304 608 l 219 649 q 368 613 300 649 q 481 518 436 578 q 517 661 517 583 q 483 800 517 736 q 392 904 450 864 l 56 904 l 56 897 q 86 881 74 894 q 99 849 99 868 q 84 815 99 829 q 49 800 69 800 q 15 815 29 800 q 0 849 0 829 q 12 881 0 868 q 43 897 24 894 l 43 972 l 219 972 q 340 948 283 972 q 440 881 397 924 q 506 782 482 839 q 531 661 531 725 q 519 580 531 619 q 489 506 508 540 m 56 938 l 329 938 q 219 958 279 958 l 56 958 l 56 938 m 382 911 q 364 922 372 917 q 344 931 356 926 l 56 931 l 56 911 l 382 911 m 403 410 q 374 390 389 399 q 342 375 358 382 l 178 88 l 219 88 l 403 410 m 353 396 q 390 417 372 406 q 422 443 407 429 l 424 446 q 400 478 414 463 l 353 396 m 224 88 q 248 89 236 88 q 271 93 260 90 l 444 400 q 438 417 442 408 q 431 433 435 425 q 420 424 425 428 q 410 415 415 419 l 224 88 m 275 94 q 329 114 301 100 l 456 339 q 452 368 454 354 q 446 396 450 382 l 275 94 m 335 117 q 423 202 389 147 q 457 325 457 257 q 456 332 457 329 l 335 117 m 406 488 l 424 521 l 456 481 q 431 451 444 465 l 431 453 l 406 488 m 378 515 l 403 490 l 422 524 q 409 535 415 531 q 396 547 403 540 l 378 515 m 297 375 q 347 393 326 382 l 397 481 q 385 493 392 488 q 372 506 379 499 l 297 375 m 135 88 l 175 88 l 336 374 q 313 365 325 368 q 289 358 301 361 l 135 88 m 147 40 l 168 78 l 129 78 l 108 40 l 147 40 m 193 40 l 214 78 l 172 78 l 151 40 l 193 40 m 219 40 q 231 41 225 40 q 242 42 236 42 l 264 82 q 222 78 243 78 l 218 78 l 197 40 l 219 40 m 246 42 q 293 50 271 44 l 319 99 q 268 82 299 89 l 246 42 z "},"4":{"ha":889,"x_min":0,"x_max":672,"o":"m 632 383 l 672 383 l 672 340 l 672 286 l 672 283 l 493 283 l 493 0 l 475 0 l 475 283 l 446 283 l 446 0 l 428 0 l 400 0 l 372 0 l 372 283 l 201 283 l 167 283 l 160 283 l 156 283 l 0 283 l 0 340 l 336 972 l 349 972 l 14 340 l 56 340 l 192 597 l 389 972 l 393 972 l 194 596 l 60 340 l 99 340 l 433 972 l 438 972 l 101 340 l 139 340 l 474 972 l 478 972 l 143 340 l 167 340 l 186 340 l 400 746 l 400 785 l 428 843 l 496 972 l 497 972 l 496 592 l 496 542 l 496 508 l 496 494 l 494 340 l 632 340 l 632 383 m 400 657 l 400 739 l 189 340 l 201 340 l 399 340 l 400 615 l 400 617 l 400 657 z "},"5":{"ha":828,"x_min":0,"x_max":540,"o":"m 250 688 q 366 641 313 674 q 458 560 419 608 q 518 453 496 513 q 540 328 540 394 q 505 169 540 244 q 403 42 469 94 l 399 47 q 499 172 464 100 q 533 328 533 244 q 512 451 533 393 q 453 556 490 510 q 363 635 415 603 q 250 681 311 667 l 250 647 q 350 605 304 635 q 430 533 396 575 q 483 438 464 490 q 501 328 501 386 q 474 200 501 260 q 401 96 447 140 q 294 26 356 51 q 165 0 233 0 q 128 15 143 0 q 113 53 113 31 q 121 81 113 68 q 142 100 129 93 l 290 361 l 249 361 l 58 25 l 49 31 l 236 361 l 199 361 l 8 25 l 0 31 l 188 361 l 188 360 l 189 363 l 213 406 l 213 433 l 399 433 l 421 433 l 456 433 q 411 512 439 476 q 347 574 383 547 q 265 615 310 600 q 172 629 221 629 l 168 629 l 168 638 l 168 657 l 168 789 l 168 843 l 168 892 l 167 892 l 158 892 l 135 892 l 122 892 l 163 961 l 168 972 l 169 972 l 538 972 l 538 892 l 300 892 l 250 892 l 250 688 m 365 389 l 356 372 l 418 372 q 415 389 418 378 l 365 389 m 314 389 l 304 372 l 349 372 l 358 389 l 314 389 m 253 389 l 215 389 l 206 372 l 243 372 l 253 389 m 296 372 l 306 389 l 264 389 l 254 372 l 296 372 m 165 106 q 193 97 181 106 l 342 361 l 299 361 l 151 103 q 165 106 160 106 m 474 328 q 474 344 474 336 q 472 361 474 353 l 440 361 q 442 344 442 353 q 443 326 443 336 q 412 199 443 258 q 324 103 381 140 q 250 68 289 81 l 244 88 q 313 119 281 99 q 393 209 364 154 q 422 326 422 264 q 422 344 422 336 q 421 361 422 353 l 350 361 l 199 94 q 218 53 218 78 q 213 29 218 39 q 315 64 268 38 q 398 130 363 90 q 453 220 433 169 q 474 328 474 271 m 471 372 q 469 381 469 376 q 468 389 469 385 l 436 389 q 439 372 439 378 l 471 372 m 232 685 q 219 687 225 686 q 207 688 214 688 l 207 656 l 232 651 l 232 685 m 232 892 l 226 892 l 207 892 l 207 796 l 207 782 l 207 740 l 207 726 l 207 694 q 219 694 214 694 q 232 692 225 693 l 232 771 l 232 785 l 232 826 l 232 840 l 232 892 z "},"6":{"ha":824,"x_min":0,"x_max":621,"o":"m 321 478 l 276 486 l 178 428 l 113 253 l 182 165 q 152 220 163 190 q 142 283 142 250 q 156 355 142 321 q 194 415 169 389 q 251 458 218 442 q 321 478 283 475 m 543 478 q 601 388 581 438 q 621 283 621 338 q 599 173 621 225 q 538 83 576 121 q 447 22 499 44 q 338 0 396 0 q 228 22 279 0 q 138 83 176 44 q 76 173 99 121 q 54 283 54 225 q 104 443 54 374 l 394 972 l 440 972 l 185 522 q 202 532 193 528 q 221 540 211 536 l 465 972 l 472 972 l 231 546 q 283 561 256 556 q 338 567 310 567 q 450 544 397 567 q 543 478 503 521 m 338 14 q 442 35 393 14 q 528 93 492 57 q 585 178 564 129 q 607 283 607 228 q 588 383 607 336 q 533 469 569 431 q 444 531 494 510 q 338 553 394 553 q 219 525 275 553 l 183 461 q 254 504 215 489 q 338 519 293 519 q 429 501 386 519 q 504 450 472 482 q 555 375 536 418 q 574 283 574 332 q 555 192 574 235 q 504 117 536 149 q 429 66 472 85 q 338 47 386 47 q 246 66 289 47 q 171 117 203 85 q 120 192 139 149 q 101 283 101 235 q 119 372 101 331 q 165 444 136 413 l 208 519 q 107 422 146 485 q 68 283 68 360 q 90 178 68 228 q 147 93 111 129 q 233 35 183 57 q 338 14 282 14 m 182 165 q 152 220 163 190 q 142 283 142 250 q 156 355 142 321 q 194 415 169 389 q 251 458 218 442 q 321 478 283 475 l 276 486 l 178 428 l 113 253 l 182 165 m 388 261 q 361 272 372 261 q 350 299 350 283 q 358 322 350 313 q 379 335 367 332 l 379 474 q 338 478 358 478 l 328 478 l 328 89 q 333 88 331 89 q 338 88 335 88 q 413 103 378 88 q 475 144 449 118 q 517 207 501 171 q 532 283 532 243 q 494 399 532 349 q 397 469 457 450 l 397 335 q 418 322 410 332 q 426 299 426 313 q 415 272 426 283 q 388 261 403 261 m 353 972 l 376 972 l 39 379 q 47 360 47 371 q 41 343 47 350 q 24 336 35 336 q 7 343 14 336 q 0 360 0 350 q 19 383 0 381 l 353 972 z "},"7":{"ha":785,"x_min":0,"x_max":751,"o":"m 93 972 l 728 972 l 721 961 l 175 0 l 168 0 l 668 883 l 549 883 l 47 0 l 0 0 l 501 883 l 271 883 l 139 883 l 93 883 l 93 972 m 214 883 l 264 883 l 214 883 m 147 883 l 206 883 l 147 883 m 751 967 l 204 0 l 200 0 l 749 968 l 751 967 z "},"8":{"ha":788,"x_min":0,"x_max":569,"o":"m 538 503 q 528 478 538 488 q 506 465 519 468 q 569 285 569 386 q 547 174 569 226 q 486 83 525 122 q 395 22 447 44 q 285 0 343 0 q 174 22 226 0 q 83 83 122 44 q 22 174 44 122 q 0 285 0 226 l 14 285 q 35 178 14 228 q 93 93 57 129 q 178 35 129 57 q 285 14 228 14 q 390 35 340 14 q 476 93 439 57 q 534 178 513 129 q 556 285 556 228 q 485 467 556 389 q 461 503 461 476 q 472 529 461 518 q 499 540 483 540 q 526 529 514 540 q 538 503 538 518 m 513 735 q 494 822 513 781 q 446 893 476 863 q 374 941 415 924 q 288 958 333 958 q 199 940 242 958 q 125 889 157 922 q 80 817 96 857 q 64 735 64 778 l 50 735 q 67 823 50 781 q 115 899 83 865 q 288 972 186 972 q 381 953 338 972 q 456 902 424 935 q 508 826 489 869 q 526 735 526 783 l 513 735 m 482 735 q 453 631 482 676 q 376 561 424 586 l 349 514 q 418 481 386 503 q 473 429 450 460 q 509 362 496 399 q 522 285 522 325 q 503 192 522 236 q 452 117 485 149 q 376 66 419 85 q 285 47 333 47 q 192 66 236 47 q 117 117 149 85 q 66 192 85 149 q 47 285 47 236 q 62 367 47 328 q 103 438 76 407 q 165 489 129 468 q 242 518 200 510 l 256 543 q 192 566 221 549 q 141 609 163 583 q 107 667 119 635 q 94 735 94 699 q 110 810 94 775 q 151 872 125 846 q 212 913 176 897 q 288 928 247 928 q 363 913 328 928 q 425 872 399 897 q 467 810 451 846 q 482 735 482 775 m 250 519 q 267 522 258 521 q 285 522 276 522 l 296 522 l 307 542 q 288 540 301 540 q 275 540 281 540 q 263 542 269 540 l 250 519 m 292 426 l 321 476 q 306 479 314 479 q 292 481 299 479 l 292 426 m 272 479 q 222 469 249 479 l 93 243 q 100 218 96 231 q 111 194 104 206 l 272 479 m 213 467 q 124 396 158 444 q 89 285 89 347 q 90 269 89 278 q 92 254 90 261 l 213 467 m 115 188 q 126 171 121 179 q 138 156 131 163 l 285 414 l 285 481 l 281 481 l 115 188 m 143 150 q 207 106 171 122 q 285 89 243 89 l 285 400 l 143 150 m 481 285 q 438 408 481 356 q 328 475 394 460 l 292 413 l 292 89 q 365 106 331 90 q 426 149 400 122 q 466 210 451 175 q 481 285 481 244 m 365 556 q 342 548 354 551 q 317 542 329 544 l 304 521 q 323 519 314 521 q 342 515 332 518 l 365 556 m 64 722 l 64 651 l 50 651 l 50 722 l 64 722 z "},"9":{"ha":824,"x_min":0,"x_max":607,"o":"m 554 694 q 538 600 554 644 q 492 519 521 556 l 207 0 l 160 0 l 421 458 q 399 446 410 451 q 375 436 388 440 l 128 0 l 119 0 l 285 292 l 285 418 l 278 418 q 168 440 219 418 q 76 504 117 463 q 19 592 39 543 q 0 694 0 642 q 22 802 0 751 q 81 890 43 853 q 169 950 118 928 q 278 972 219 972 q 385 950 335 972 q 474 890 436 928 q 533 802 511 853 q 554 694 554 751 m 518 803 q 500 836 511 818 l 300 485 l 300 432 q 304 433 303 432 q 307 433 306 433 l 518 803 m 496 843 q 485 858 490 850 q 472 872 479 865 l 300 569 l 300 499 l 496 843 m 467 878 q 457 888 463 883 q 446 897 451 893 l 300 642 l 300 582 l 467 878 m 285 917 l 300 917 l 300 654 l 440 901 q 278 958 371 958 q 175 938 224 958 q 91 881 126 917 q 35 797 56 846 q 14 694 14 749 q 32 597 14 644 q 86 514 50 550 q 173 452 124 474 q 278 431 222 431 q 281 431 279 431 q 285 432 282 432 l 285 478 q 225 486 254 478 q 163 517 192 496 q 115 565 135 538 q 83 625 94 592 q 71 696 71 658 q 88 780 71 740 q 133 849 104 819 q 201 897 163 879 q 285 915 240 914 l 285 917 m 365 432 q 300 419 335 422 l 300 318 l 365 432 m 315 435 q 375 450 346 439 l 538 736 q 521 796 533 767 l 315 435 m 386 454 q 498 551 456 486 q 540 694 540 615 q 540 710 540 703 q 539 725 540 718 l 386 454 m 583 643 q 601 636 594 643 q 607 619 607 629 q 601 603 607 610 q 583 596 594 596 q 569 601 575 596 l 229 0 l 226 1 l 567 603 q 561 619 561 608 q 567 636 561 629 q 583 643 574 643 m 588 708 q 468 939 576 840 l 436 939 l 436 951 l 475 951 l 475 939 l 474 939 q 556 831 526 890 q 590 707 586 772 q 607 685 607 703 q 601 668 607 675 q 583 661 594 661 q 567 668 574 661 q 561 685 561 675 q 567 701 561 694 q 583 708 574 708 l 588 708 m 475 958 l 436 958 l 436 971 l 475 971 l 475 958 z "},"\u0000":{"ha":0,"x_min":0,"x_max":0,"o":""},"\r":{"ha":694,"x_min":0,"x_max":0,"o":""}," ":{"ha":403,"x_min":0,"x_max":0,"o":""},"E":{"ha":840,"x_min":0,"x_max":483,"o":"m 483 175 l 483 0 l 0 0 l 0 175 l 15 175 l 15 385 l 0 385 l 0 561 l 15 561 l 15 797 l 0 797 l 0 972 l 15 972 l 22 972 l 483 972 l 483 797 l 321 797 l 321 561 l 483 561 l 483 385 l 321 385 l 321 175 l 483 175 m 314 175 l 314 385 l 244 385 l 244 175 l 314 175 m 163 561 l 163 797 l 96 797 l 96 561 l 163 561 m 169 797 l 169 561 l 238 561 l 238 797 l 169 797 m 163 385 l 96 385 l 96 175 l 163 175 l 163 385 m 169 385 l 169 175 l 238 175 l 238 385 l 169 385 m 314 561 l 314 797 l 244 797 l 244 561 l 314 561 m 22 797 l 22 561 l 89 561 l 89 797 l 22 797 m 22 385 l 22 175 l 89 175 l 89 385 l 22 385 z "},"F":{"ha":819,"x_min":0,"x_max":558,"o":"m 558 849 l 51 849 l 51 825 l 558 825 l 558 817 l 51 817 l 51 633 l 439 633 l 439 624 l 51 624 l 51 583 l 439 583 l 439 574 l 51 574 l 51 531 l 439 531 l 439 522 l 51 522 l 51 479 l 439 479 l 439 471 l 51 471 l 51 428 l 439 428 l 439 418 l 51 418 l 51 279 l 51 164 l 51 0 l 0 0 l 0 849 l 0 972 l 51 972 l 558 972 l 558 849 l 558 849 z "},"G":{"ha":1044,"x_min":0,"x_max":743,"o":"m 743 372 l 743 301 l 743 229 l 743 0 l 721 0 l 682 0 l 486 0 q 297 38 386 0 q 142 142 208 76 q 38 297 76 208 q 0 486 0 386 q 38 675 0 586 q 142 830 76 764 q 297 934 208 896 q 486 972 386 972 l 486 931 q 313 895 394 931 q 172 799 232 860 q 76 658 111 739 q 42 486 42 578 q 76 313 42 394 q 172 172 111 232 q 313 76 232 111 q 486 42 394 42 l 682 42 l 682 76 l 486 76 q 326 108 401 76 q 196 196 251 140 q 108 326 140 251 q 76 486 76 401 q 108 646 76 571 q 196 776 140 721 q 326 864 251 832 q 486 896 401 896 l 486 854 q 343 825 410 854 q 226 746 276 796 q 147 629 176 696 q 118 486 118 563 q 147 343 118 410 q 226 226 176 276 q 343 147 276 176 q 486 118 410 118 l 682 118 l 682 157 l 486 157 q 358 183 418 157 q 253 253 299 208 q 183 358 208 299 q 157 486 157 418 q 183 614 157 554 q 253 718 208 674 q 358 789 299 763 q 486 815 418 815 l 486 801 q 363 776 421 801 q 263 709 306 751 q 196 609 221 667 q 171 486 171 551 q 196 363 171 421 q 263 263 221 306 q 363 196 306 221 q 486 171 421 171 l 682 171 l 682 229 l 518 229 l 518 372 l 743 372 m 486 728 q 392 709 436 728 q 315 657 347 690 q 263 580 282 624 q 243 486 243 536 q 263 392 243 436 q 315 315 282 347 q 392 263 347 282 q 486 243 436 243 l 486 229 q 386 249 433 229 q 304 304 339 269 q 249 386 269 339 q 229 486 229 433 q 249 586 229 539 q 304 668 269 633 q 386 723 339 703 q 486 743 433 743 l 486 728 m 486 660 q 419 646 450 660 q 364 608 388 632 q 326 553 340 585 q 313 486 313 522 q 326 419 313 450 q 364 364 340 388 q 419 326 388 340 q 486 313 450 313 l 486 299 q 413 313 447 299 q 353 353 379 328 q 313 413 328 379 q 299 486 299 447 q 313 559 299 525 q 353 619 328 593 q 413 659 379 644 q 486 674 447 674 l 486 660 m 486 588 q 415 558 444 588 q 385 486 385 528 q 415 415 385 444 q 486 385 444 385 l 486 371 q 404 404 438 371 q 371 486 371 438 q 404 568 371 535 q 486 601 438 601 l 486 588 z "},"H":{"ha":924,"x_min":0,"x_max":550,"o":"m 103 0 l 103 972 l 108 972 l 108 0 l 103 0 m 460 972 l 550 972 l 550 0 l 460 0 l 460 972 m 411 0 l 411 972 l 418 972 l 418 0 l 411 0 m 53 0 l 53 972 l 60 972 l 60 0 l 53 0 m 0 0 l 0 972 l 7 972 l 7 0 l 0 0 m 190 522 l 190 581 l 344 581 l 344 522 l 190 522 z "},"I":{"ha":692,"x_min":0,"x_max":92,"o":"m 0 0 l 0 783 l 92 783 l 92 0 l 0 0 m 0 972 l 92 972 l 92 950 l 0 950 l 0 972 m 0 907 l 0 928 l 92 928 l 92 907 l 0 907 m 0 860 l 0 882 l 92 882 l 92 860 l 0 860 z "},"J":{"ha":711,"x_min":0,"x_max":556,"o":"m 556 350 l 556 347 q 502 168 553 249 q 369 43 451 88 l 361 38 q 199 -3 288 0 l 0 -3 l 0 75 l 0 113 l 0 222 l 111 222 l 111 113 l 199 113 q 252 120 226 113 q 301 140 278 128 l 226 269 l 222 269 q 200 292 200 269 q 222 314 200 314 q 244 292 244 314 q 236 274 244 282 l 310 146 q 350 176 333 160 l 221 397 q 218 397 219 397 q 214 396 217 396 q 199 402 206 396 q 192 418 192 408 q 214 440 192 440 q 230 434 224 440 q 236 419 236 428 q 229 403 236 410 l 357 185 l 378 147 l 413 88 q 426 99 422 96 q 439 113 431 103 l 435 397 l 432 972 l 556 972 l 556 361 l 556 350 m 358 53 q 380 66 369 60 q 400 79 390 72 l 367 139 q 348 123 357 131 q 328 108 339 115 l 322 106 q 199 72 267 75 l 199 11 q 354 50 281 11 l 358 53 z "},"K":{"ha":922,"x_min":0,"x_max":742,"o":"m 460 493 l 707 56 l 733 56 l 733 0 l 539 0 l 122 736 l 122 0 l 78 0 l 0 0 l 0 968 l 0 968 l 0 972 l 257 972 l 257 911 l 221 911 l 349 686 l 514 972 l 742 972 l 460 493 m 253 519 l 279 567 l 122 844 l 122 749 l 253 519 m 283 574 l 311 622 l 147 911 l 122 911 l 122 858 l 283 574 m 315 629 l 344 681 l 214 911 l 156 911 l 315 629 m 539 56 l 569 56 l 389 374 l 361 328 l 539 14 l 539 56 m 578 56 l 633 56 l 421 429 l 393 381 l 578 56 m 642 56 l 700 56 l 456 486 l 425 435 l 642 56 z "},"M":{"ha":1153,"x_min":0,"x_max":789,"o":"m 789 789 l 789 0 l 628 0 l 628 43 l 443 274 l 340 399 l 26 786 l 26 564 l 197 354 q 250 371 218 371 q 315 344 288 371 q 342 281 342 318 q 315 216 342 243 q 250 189 288 189 q 186 216 213 189 q 160 281 160 243 q 168 319 160 301 q 192 350 176 338 l 26 554 l 26 0 l 0 0 l 0 972 l 381 514 l 360 497 l 26 899 l 26 849 l 369 425 l 526 560 l 488 608 q 432 590 463 590 q 368 617 394 590 q 342 681 342 643 q 368 745 342 718 q 432 772 394 772 q 497 745 471 772 q 524 681 524 718 q 492 613 524 640 l 531 565 l 789 789 m 481 626 q 506 681 506 649 q 485 733 506 711 q 432 754 464 754 q 381 733 401 754 q 360 681 360 711 q 381 629 360 650 q 432 608 401 608 q 476 622 458 608 l 471 629 q 432 617 454 617 q 387 635 406 617 q 368 681 368 654 q 387 727 368 708 q 432 746 406 746 q 478 727 460 746 q 497 681 497 708 q 475 633 497 651 l 481 626 m 431 679 l 435 683 l 454 661 q 463 681 463 669 q 453 701 463 693 q 432 710 444 710 q 412 701 421 710 q 403 681 403 693 q 412 660 403 669 q 432 651 421 651 q 449 657 440 651 l 431 679 m 203 336 q 184 311 192 325 q 176 281 176 297 q 198 228 176 250 q 250 207 219 207 q 302 228 281 207 q 324 281 324 250 q 302 333 324 311 q 250 354 281 354 q 208 340 226 354 l 214 333 q 250 344 229 344 q 297 326 278 344 q 315 281 315 308 q 297 235 315 253 q 250 217 278 217 q 205 235 224 217 q 186 281 186 253 q 208 329 186 310 l 203 336 m 256 281 l 251 276 l 231 301 q 221 281 221 292 q 230 260 221 268 q 250 251 239 251 q 271 260 263 251 q 279 281 279 268 q 271 301 279 293 q 250 310 263 310 q 236 306 242 310 l 256 281 m 365 419 l 26 838 l 26 797 l 346 403 l 365 419 m 628 94 l 467 294 l 447 278 l 628 54 l 628 94 m 628 436 l 471 299 l 628 106 l 628 436 z "},"L":{"ha":764,"x_min":0,"x_max":453,"o":"m 79 736 l 51 736 l 51 972 l 79 972 l 79 736 m 133 736 l 106 736 l 106 972 l 133 972 l 133 736 m 28 532 l 300 194 l 453 194 l 453 96 l 381 96 l 414 54 l 453 54 l 453 0 l 74 0 l 74 54 l 264 54 l 231 96 l 74 96 l 74 194 l 150 194 l 28 346 l 28 0 l 0 0 l 0 971 l 28 971 l 28 532 m 292 194 l 28 521 l 28 446 l 231 194 l 292 194 m 28 356 l 157 194 l 221 194 l 28 435 l 28 356 m 238 96 l 271 54 l 335 54 l 301 96 l 238 96 m 406 54 l 372 96 l 311 96 l 344 54 l 406 54 z "},"N":{"ha":965,"x_min":0,"x_max":754,"o":"m 693 972 l 754 972 l 754 0 l 693 0 l 693 776 l 622 681 l 622 0 l 479 0 l 479 485 l 138 22 l 138 0 l 0 0 l 0 972 l 468 525 l 693 829 l 693 972 m 138 76 l 382 407 l 138 640 l 138 76 z "},"O":{"ha":1138,"x_min":0,"x_max":972,"o":"m 486 0 q 297 38 386 0 q 142 142 208 76 q 38 297 76 208 q 0 486 0 386 q 38 675 0 586 q 142 830 76 764 q 297 934 208 896 q 486 972 386 972 q 708 919 607 972 q 876 776 810 865 l 578 549 q 538 584 563 571 q 486 597 514 597 q 408 565 440 597 q 375 486 375 532 q 408 408 375 440 q 486 375 440 375 q 565 408 532 375 q 597 486 597 440 l 910 724 q 956 611 940 671 q 972 486 972 551 q 934 297 972 386 q 830 142 896 208 q 675 38 764 76 q 486 0 586 0 m 585 538 l 883 765 q 894 751 889 758 q 903 736 899 743 l 596 503 l 585 538 z "},"P":{"ha":854,"x_min":0,"x_max":579,"o":"m 289 940 q 389 920 342 940 q 471 865 436 900 q 526 783 506 831 q 546 683 546 736 q 526 583 546 631 q 471 501 506 536 q 389 447 436 467 q 289 426 342 426 q 189 447 236 426 q 107 501 142 467 q 52 583 72 536 q 32 683 32 631 q 52 783 32 736 q 107 865 72 831 q 189 920 142 900 q 289 940 236 940 m 289 435 q 385 454 340 435 q 465 508 431 474 q 518 587 499 542 q 538 683 538 632 q 518 780 538 735 q 465 858 499 825 q 385 911 431 892 q 289 931 340 931 q 192 911 238 931 q 114 858 147 892 q 61 780 81 825 q 42 683 42 735 q 61 587 42 632 q 114 508 81 542 q 192 454 147 474 q 289 435 238 435 m 289 871 q 363 856 328 871 q 423 816 397 842 q 463 756 449 790 q 478 683 478 722 q 463 610 478 644 q 423 549 449 575 q 363 509 397 524 q 289 494 328 494 q 216 509 250 494 q 156 549 182 524 q 116 610 131 575 q 101 683 101 644 q 116 756 101 722 q 156 816 131 790 q 216 856 182 842 q 289 871 250 871 m 289 504 q 359 518 326 504 q 416 556 392 532 q 454 613 440 581 q 468 683 468 646 q 454 753 468 721 q 416 809 440 785 q 359 847 392 833 q 289 861 326 861 q 219 847 251 861 q 163 809 188 833 q 125 753 139 785 q 111 683 111 721 q 125 613 111 646 q 163 556 139 581 q 219 518 188 532 q 289 504 251 504 m 289 839 q 349 826 321 839 q 399 793 378 814 q 433 744 421 772 q 446 683 446 715 q 433 623 446 651 q 399 573 421 594 q 349 539 378 551 q 289 526 321 526 q 228 539 257 526 q 179 573 200 551 q 146 623 158 594 q 133 683 133 651 q 146 744 133 715 q 179 793 158 772 q 228 826 200 814 q 289 839 257 839 m 289 536 q 346 548 319 536 q 392 579 372 560 q 424 626 413 599 q 436 683 436 653 q 424 740 436 714 q 392 786 413 767 q 346 817 372 806 q 289 829 319 829 q 232 817 258 829 q 185 786 206 806 q 154 740 165 767 q 143 683 143 714 q 154 626 143 653 q 185 579 165 599 q 232 548 206 560 q 289 536 258 536 m 289 972 q 401 949 349 972 q 494 887 454 926 q 556 795 533 847 q 579 683 579 743 q 556 571 579 624 q 494 478 533 518 q 401 416 454 439 q 289 393 349 393 q 194 410 240 393 l 194 0 l 151 0 l 151 429 q 106 460 125 443 l 106 0 l 4 0 l 4 631 q 0 683 0 656 q 23 795 0 743 q 85 887 46 847 q 176 949 124 926 q 289 972 229 972 m 289 403 q 398 425 347 403 q 487 485 449 447 q 547 574 525 524 q 569 683 569 625 q 547 792 569 742 q 487 881 525 843 q 398 940 449 918 q 289 963 347 963 q 180 940 231 963 q 92 881 129 918 q 32 792 54 843 q 10 683 10 742 q 32 574 10 625 q 92 485 54 524 q 180 425 129 447 q 289 403 231 403 m 289 789 q 367 757 335 789 q 399 681 399 725 q 367 603 399 635 q 289 571 335 571 q 213 603 244 571 q 181 681 181 635 q 213 757 181 725 q 289 789 244 789 z "},"Q":{"ha":1240,"x_min":0,"x_max":951,"o":"m 0 486 q 38 675 0 586 q 142 830 76 764 q 297 934 208 896 q 486 972 386 972 l 486 954 q 303 917 389 954 q 155 817 218 881 q 55 668 92 753 q 18 486 18 583 q 55 303 18 389 q 155 155 92 218 q 303 55 218 92 q 486 18 389 18 l 486 0 q 297 38 386 0 q 142 142 208 76 q 38 297 76 208 q 0 486 0 386 m 43 486 q 78 658 43 578 q 173 799 113 739 q 314 894 233 860 q 486 929 394 929 l 486 840 q 348 813 413 840 q 235 736 283 785 q 160 623 188 688 q 132 486 132 558 q 160 348 132 413 q 235 235 188 283 q 348 160 283 188 q 486 132 413 132 l 486 43 q 314 78 394 43 q 173 173 233 113 q 78 314 113 233 q 43 486 43 394 m 226 486 q 247 588 226 540 q 302 670 267 635 q 385 726 338 706 q 486 746 432 746 l 486 738 q 388 718 433 738 q 308 664 343 699 q 254 583 274 629 q 235 486 235 538 q 254 388 235 433 q 308 308 274 343 q 388 254 343 274 q 486 235 433 235 l 486 225 q 385 246 432 225 q 302 302 338 267 q 247 385 267 338 q 226 486 226 432 m 151 486 q 178 617 151 556 q 249 723 204 678 q 356 794 294 768 q 486 821 417 821 l 486 811 q 360 785 419 811 q 256 716 300 760 q 185 613 211 672 q 160 486 160 553 q 185 360 160 419 q 256 256 211 300 q 360 185 300 211 q 486 160 419 160 l 486 151 q 356 178 417 151 q 249 249 294 204 q 178 356 204 294 q 151 486 151 417 m 297 486 q 312 560 297 525 q 352 620 326 594 q 413 660 378 646 q 486 675 447 675 l 486 667 q 416 653 449 667 q 358 614 383 639 q 319 556 333 589 q 306 486 306 524 q 319 416 306 449 q 358 358 333 383 q 416 319 383 333 q 486 306 449 306 l 486 297 q 413 312 447 297 q 352 352 378 326 q 312 413 326 378 q 297 486 297 447 m 486 593 q 410 562 442 593 q 379 486 379 531 q 410 410 379 442 q 486 379 442 379 l 486 371 q 404 404 438 371 q 371 486 371 438 q 404 568 371 535 q 486 601 438 601 l 486 593 m 951 436 q 911 253 951 338 q 803 110 871 169 l 940 0 l 790 0 l 722 54 q 624 15 676 29 q 517 1 572 1 l 517 18 q 617 30 569 18 q 708 64 665 42 l 601 149 l 601 150 q 517 138 560 138 l 517 144 q 629 167 576 144 q 722 230 682 190 q 784 322 761 269 q 807 436 807 375 q 784 549 807 496 q 722 641 761 601 q 629 703 682 681 q 517 726 576 726 l 517 735 q 632 711 578 735 q 727 647 686 688 q 792 553 768 607 q 815 436 815 499 q 783 299 815 361 q 693 196 750 236 l 789 119 q 895 259 856 178 q 935 436 935 340 q 902 599 935 522 q 813 732 869 675 q 679 822 756 789 q 517 854 603 854 l 517 871 q 685 837 606 871 q 824 743 764 803 q 917 604 883 683 q 951 436 951 525 m 749 436 q 731 345 749 388 q 681 272 713 303 q 606 222 649 240 q 517 203 564 203 l 517 211 q 603 229 563 211 q 675 278 644 247 q 723 349 706 308 q 740 436 740 390 q 723 523 740 482 q 675 594 706 564 q 603 643 644 625 q 517 661 563 661 l 517 668 q 606 650 564 668 q 681 600 649 632 q 731 526 713 568 q 749 436 749 483 m 686 436 q 673 370 686 401 q 637 316 660 339 q 583 280 614 293 q 517 267 551 267 l 517 275 q 579 288 550 275 q 631 322 608 300 q 665 374 653 344 q 678 436 678 403 q 665 499 678 469 q 631 550 653 528 q 579 585 608 572 q 517 597 550 597 l 517 606 q 583 592 551 606 q 637 556 614 579 q 673 502 660 533 q 686 436 686 471 m 517 340 q 583 368 556 340 q 611 436 611 396 q 583 503 611 476 q 517 531 556 531 l 517 539 q 590 509 560 539 q 619 436 619 479 q 590 363 619 393 q 517 333 560 333 l 517 340 z "},"R":{"ha":847,"x_min":0,"x_max":604,"o":"m 303 368 q 284 369 293 368 q 265 371 275 369 l 565 0 l 507 0 l 192 390 q 108 439 147 407 l 464 0 l 440 0 l 96 425 l 96 0 l 0 0 l 0 671 l 0 667 l 0 671 q 24 788 0 733 q 89 884 47 843 q 185 949 131 925 q 303 972 240 972 q 420 949 365 972 q 516 884 475 925 q 581 788 557 843 q 604 671 604 733 q 581 553 604 608 q 516 457 557 499 q 420 392 475 415 q 303 368 365 368 m 10 671 q 33 556 10 610 q 95 463 56 503 q 188 401 135 424 q 303 378 242 378 q 416 401 363 378 q 510 463 469 424 q 573 556 550 503 q 596 671 596 610 q 573 784 596 731 q 510 878 550 838 q 416 941 469 918 q 303 964 363 964 q 188 941 242 964 q 95 878 135 918 q 33 784 56 838 q 10 671 10 731 m 303 403 q 199 424 247 403 q 113 481 150 444 q 56 567 76 518 q 35 671 35 615 q 56 775 35 726 q 113 860 76 824 q 199 917 150 896 q 303 939 247 939 q 407 917 358 939 q 492 860 456 896 q 549 775 528 824 q 571 671 571 726 q 549 567 571 615 q 492 481 528 518 q 407 424 456 444 q 303 403 358 403 m 303 929 q 201 909 249 929 q 119 853 154 889 q 63 772 83 818 q 43 671 43 725 q 63 569 43 617 q 119 487 83 522 q 201 431 154 451 q 303 411 249 411 q 403 431 357 411 q 485 487 450 451 q 541 569 521 522 q 561 671 561 617 q 541 772 561 725 q 485 853 521 818 q 403 909 450 889 q 303 929 357 929 m 303 435 q 211 453 254 435 q 136 504 168 472 q 85 579 104 536 q 67 671 67 622 q 85 762 67 719 q 136 836 104 804 q 211 887 168 868 q 303 906 254 906 q 394 887 351 906 q 468 836 436 868 q 519 762 500 804 q 538 671 538 719 q 519 579 538 622 q 468 504 500 536 q 394 453 436 472 q 303 435 351 435 m 303 897 q 215 879 256 897 q 143 831 174 861 q 94 758 113 800 q 76 671 76 717 q 94 583 76 624 q 143 511 113 542 q 215 463 174 481 q 303 444 256 444 q 391 463 350 444 q 463 511 432 481 q 511 583 493 542 q 529 671 529 624 q 511 758 529 717 q 463 831 493 800 q 391 879 432 861 q 303 897 350 897 m 303 474 q 226 489 263 474 q 164 531 190 504 q 122 594 138 558 q 107 671 107 631 q 122 747 107 711 q 164 809 138 782 q 226 851 190 836 q 303 867 263 867 q 379 851 343 867 q 442 809 415 836 q 483 747 468 782 q 499 671 499 711 q 483 594 499 631 q 442 531 468 558 q 379 489 415 504 q 303 474 343 474 m 303 857 q 230 842 264 857 q 170 803 196 828 q 130 744 144 778 q 115 671 115 710 q 130 598 115 632 q 170 538 144 564 q 230 498 196 513 q 303 483 264 483 q 376 498 342 483 q 435 538 410 513 q 476 598 461 564 q 490 671 490 632 q 476 744 490 710 q 435 803 461 778 q 376 842 410 828 q 303 857 342 857 m 303 519 q 244 531 271 519 q 196 564 217 543 q 163 612 175 585 q 151 671 151 639 q 163 729 151 701 q 196 777 175 757 q 244 809 217 797 q 303 821 271 821 q 361 809 333 821 q 410 777 389 797 q 442 729 431 757 q 454 671 454 701 q 442 612 454 639 q 410 564 431 585 q 361 531 389 543 q 303 519 333 519 z "},"S":{"ha":814,"x_min":0,"x_max":597,"o":"m 521 458 q 571 388 551 426 q 584 342 579 367 q 589 290 589 318 q 565 175 589 229 q 501 83 542 122 q 407 22 461 44 q 293 0 357 0 q 188 18 236 0 q 101 67 140 35 q 38 143 63 99 q 0 243 10 189 l 99 271 l 99 592 q 65 644 76 618 q 49 733 49 682 q 69 832 49 788 q 128 907 90 875 q 213 956 167 940 q 311 972 258 972 q 454 935 389 972 q 554 828 518 894 l 597 828 l 597 772 l 471 772 q 406 849 442 822 q 310 875 369 875 q 250 864 279 875 q 200 835 221 853 q 181 813 189 824 q 165 789 172 801 q 153 729 153 761 q 168 676 153 700 q 203 636 185 651 q 226 619 214 626 q 250 606 238 613 q 276 593 264 599 q 300 582 289 588 l 363 554 q 383 545 374 550 q 403 536 393 540 l 404 536 l 404 535 q 449 511 425 525 q 488 487 469 500 q 521 458 506 474 m 157 543 q 149 548 153 546 q 142 553 144 550 l 142 414 l 121 414 l 121 571 q 115 576 118 574 q 108 581 111 578 q 106 585 108 582 l 106 253 q 113 228 108 240 q 124 204 117 215 q 139 178 131 190 q 157 156 147 167 l 157 543 m 218 510 l 201 518 l 201 350 l 181 350 l 181 529 q 178 531 179 531 q 175 532 176 531 q 169 535 172 535 q 164 539 167 536 l 164 149 q 218 113 188 125 l 218 510 m 278 482 l 261 489 l 261 282 l 240 282 l 240 499 q 233 502 236 501 q 225 506 229 503 l 225 110 q 278 97 250 100 l 278 482 m 336 456 q 328 458 332 457 q 321 463 325 460 l 321 214 l 300 214 l 300 472 l 285 478 l 285 97 l 290 97 q 336 103 315 97 l 336 456 m 397 424 q 389 428 393 426 q 381 433 385 431 l 381 158 l 360 158 l 360 443 l 343 451 l 343 104 q 353 108 349 107 q 363 111 357 108 q 381 119 372 114 q 397 128 389 124 l 397 424 m 467 207 q 483 281 483 240 q 468 350 483 324 q 450 378 463 363 l 450 224 l 429 224 l 429 400 q 417 410 422 406 q 404 419 411 415 l 404 133 q 415 140 410 136 q 425 149 419 144 q 449 176 438 161 q 467 207 460 190 m 250 736 q 269 781 250 763 q 314 800 288 800 q 360 781 342 800 q 379 736 379 763 q 360 690 379 708 q 314 671 342 671 q 269 690 288 671 q 250 736 250 708 m 332 736 q 314 754 332 754 q 296 736 296 754 q 314 718 296 718 q 332 736 332 718 m 597 732 l 597 678 l 471 678 l 471 732 l 597 732 m 471 640 l 597 640 l 597 585 l 471 585 l 471 640 z "},"T":{"ha":875,"x_min":0,"x_max":542,"o":"m 0 804 l 0 972 l 542 972 l 542 804 l 0 804 m 0 565 l 0 733 l 542 733 l 542 565 l 278 565 l 278 196 l 331 196 l 331 0 l 208 0 l 208 196 l 261 196 l 261 565 l 0 565 z "},"U":{"ha":949,"x_min":0,"x_max":803,"o":"m 361 729 q 312 769 331 742 q 293 831 293 796 q 325 907 293 875 q 401 939 357 939 q 478 907 446 939 q 510 831 510 875 q 491 769 510 796 q 442 729 472 742 l 442 404 q 485 369 468 393 q 501 314 501 344 q 472 243 501 272 q 401 214 442 214 q 331 243 360 214 q 301 314 301 272 q 318 369 301 344 q 361 404 335 393 l 361 729 m 382 411 q 392 413 388 413 q 401 414 396 414 q 411 413 407 414 q 421 411 415 413 l 421 724 q 401 721 407 721 q 392 722 396 721 q 382 724 388 722 l 382 411 m 401 358 q 369 346 382 358 q 356 314 356 333 q 369 281 356 294 q 401 268 382 268 q 433 281 421 268 q 446 314 446 294 q 433 346 446 333 q 401 358 421 358 m 803 972 l 803 390 l 801 390 q 767 238 799 308 q 681 114 735 167 q 555 31 626 61 q 401 0 483 0 q 248 31 319 0 q 122 113 176 61 q 35 236 68 165 q 0 388 3 307 l 0 969 l 6 969 l 54 969 l 156 969 l 156 367 l 57 367 q 92 244 63 301 q 168 145 122 188 q 274 78 214 103 q 401 54 335 54 q 529 78 469 54 q 635 145 589 103 q 710 245 681 188 q 746 368 739 303 l 643 368 l 643 972 l 747 972 l 796 972 l 803 972 z "},"V":{"ha":1056,"x_min":0,"x_max":769,"o":"m 0 972 l 769 972 l 385 0 l 0 972 m 199 621 l 228 549 l 542 549 l 571 621 l 199 621 m 258 472 l 385 151 l 511 472 l 258 472 m 169 694 l 600 694 l 629 769 l 140 769 l 169 694 z "},"W":{"ha":1153,"x_min":0,"x_max":932,"o":"m 465 371 q 526 347 501 371 q 550 286 550 322 q 526 227 550 251 q 465 203 501 203 q 406 227 431 203 q 382 286 382 251 q 406 347 382 322 q 465 371 431 371 m 465 218 q 515 238 494 218 q 535 286 535 258 q 515 334 535 314 q 465 354 494 354 q 417 334 438 354 q 397 286 397 314 q 417 238 397 258 q 465 218 438 218 m 465 347 q 508 329 490 347 q 526 286 526 311 q 508 244 526 263 q 465 226 490 226 q 424 244 442 226 q 406 286 406 263 q 424 329 406 311 q 465 347 442 347 m 465 260 q 485 267 476 260 q 493 286 493 275 q 485 306 493 297 q 465 314 476 314 q 447 306 454 314 q 439 286 439 297 q 447 267 439 275 q 465 260 454 260 m 932 972 l 932 0 l 465 451 l 0 0 l 0 972 l 35 972 l 35 419 l 319 703 l 49 972 l 58 972 l 439 594 l 461 615 l 101 972 l 113 972 l 465 621 l 819 972 l 831 972 l 471 615 l 493 594 l 874 972 l 883 972 l 613 703 l 897 419 l 897 972 l 932 972 m 444 589 l 465 568 l 488 589 l 465 610 l 444 589 m 35 192 l 435 589 l 325 697 l 35 408 l 35 192 m 35 139 l 461 563 l 439 583 l 35 181 l 35 139 m 897 128 l 465 557 l 35 128 l 35 76 l 461 490 l 465 490 l 471 490 l 897 76 l 897 128 m 897 181 l 493 583 l 471 563 l 897 139 l 897 181 m 897 408 l 607 697 l 497 589 l 897 192 l 897 408 z "},"X":{"ha":1042,"x_min":4,"x_max":968,"o":"m 544 690 l 544 626 l 433 626 l 433 690 l 544 690 m 544 799 l 544 735 l 433 735 l 433 799 l 544 799 m 968 847 l 631 403 l 936 0 l 826 0 l 817 0 l 488 432 l 160 0 l 156 0 l 150 0 l 36 0 l 342 401 l 4 847 l 96 847 l 449 392 l 483 438 l 76 972 l 82 972 l 86 972 l 131 972 l 488 504 l 844 972 l 890 972 l 893 972 l 900 972 l 493 438 l 525 394 l 875 847 l 968 847 m 433 89 l 433 154 l 544 154 l 544 89 l 433 89 m 433 199 l 433 263 l 544 263 l 544 199 l 433 199 z "},"Y":{"ha":1000,"x_min":0,"x_max":640,"o":"m 640 971 l 442 603 l 440 0 l 417 0 l 417 558 l 365 461 l 364 0 l 272 0 l 274 458 l 224 553 l 222 0 l 199 0 l 199 599 l 0 972 l 640 971 m 306 917 l 92 917 l 304 519 l 304 729 q 266 753 281 735 q 251 796 251 772 q 266 840 251 821 q 304 864 281 858 l 306 917 m 547 917 l 335 917 l 335 864 q 374 840 358 858 q 389 796 389 821 q 374 753 389 772 q 335 729 358 735 l 335 519 l 547 917 z "},"Z":{"ha":875,"x_min":0,"x_max":810,"o":"m 810 729 l 810 722 l 35 243 l 810 243 l 810 0 l 0 0 l 0 228 l 0 236 l 0 236 l 0 243 l 0 243 l 794 729 l 0 729 l 0 972 l 810 972 l 810 729 l 810 729 l 810 729 z "},"a":{"ha":1097,"x_min":0,"x_max":743,"o":"m 183 379 l 19 0 l 0 0 l 167 386 l 128 403 l 371 963 l 619 393 l 581 375 l 743 0 l 724 0 l 564 368 l 522 350 l 458 496 l 285 496 l 226 361 l 183 379 m 368 688 l 358 664 l 385 664 l 375 688 l 368 688 m 356 660 l 346 638 l 396 638 l 386 660 l 356 660 m 344 633 l 335 611 l 408 611 l 399 633 l 344 633 m 332 606 l 322 582 l 421 582 l 410 606 l 332 606 m 319 578 l 310 554 l 433 554 l 422 578 l 319 578 m 308 550 l 299 528 l 444 528 l 435 550 l 308 550 m 297 524 l 288 501 l 456 501 l 446 524 l 297 524 m 350 972 l 106 407 l 99 410 l 343 972 l 350 972 m 647 406 l 640 403 l 393 972 l 401 972 l 647 406 m 153 0 l 372 490 l 592 0 l 153 0 z "},"b":{"ha":868,"x_min":0,"x_max":517,"o":"m 243 625 q 340 661 300 625 q 379 750 379 697 q 369 798 379 775 q 340 838 358 821 q 296 865 321 856 q 243 875 271 875 l 243 885 q 301 874 274 885 q 348 846 328 864 q 380 803 368 828 q 392 750 392 778 q 380 697 392 722 q 348 653 368 672 q 301 624 328 635 q 243 614 274 614 l 243 625 m 410 250 q 367 147 410 190 q 260 99 324 104 q 243 97 254 97 l 243 110 l 243 390 l 243 397 l 243 401 q 308 390 278 401 q 360 357 338 378 q 397 308 383 336 q 410 250 410 281 m 243 840 q 314 814 285 840 q 343 750 343 788 q 314 685 343 713 q 243 658 285 658 l 243 840 m 243 499 q 349 479 299 499 q 436 426 399 460 q 495 347 474 392 q 517 250 517 301 q 495 153 517 199 q 438 74 474 108 q 351 20 401 40 q 246 0 301 0 l 74 0 q 22 22 43 1 q 0 69 0 42 q 22 117 0 97 q 75 138 43 138 l 75 11 l 126 11 l 126 960 l 74 960 l 74 193 l 1 193 l 1 960 l 1 972 l 74 972 l 250 972 l 251 972 q 343 953 300 971 q 418 906 386 936 q 468 835 450 875 q 486 750 486 796 q 467 664 486 704 q 415 593 449 624 q 338 545 382 563 q 243 528 293 528 l 243 538 q 333 554 290 538 q 407 600 375 571 q 457 667 439 629 q 475 750 475 706 q 458 831 475 793 q 412 897 442 869 q 342 942 382 925 q 254 960 301 958 l 251 960 l 153 960 l 153 11 l 244 11 q 345 30 299 11 q 427 81 392 49 q 483 157 463 114 q 503 250 503 200 q 483 342 503 299 q 427 417 463 385 q 344 469 392 450 q 243 488 297 488 l 243 499 z "},"c":{"ha":1014,"x_min":0,"x_max":486,"o":"m 0 486 q 38 675 0 586 q 142 830 76 764 q 297 934 208 896 q 486 972 386 972 l 486 954 q 303 917 389 954 q 155 817 218 881 q 55 668 92 753 q 18 486 18 583 q 55 303 18 389 q 155 155 92 218 q 303 55 218 92 q 486 18 389 18 l 486 0 q 297 38 386 0 q 142 142 208 76 q 38 297 76 208 q 0 486 0 386 m 226 486 q 247 588 226 540 q 302 670 267 635 q 385 726 338 706 q 486 746 432 746 l 486 738 q 388 718 433 738 q 308 664 343 699 q 254 583 274 629 q 235 486 235 538 q 254 388 235 433 q 308 308 274 343 q 388 254 343 274 q 486 235 433 235 l 486 225 q 385 246 432 225 q 302 302 338 267 q 247 385 267 338 q 226 486 226 432 m 151 486 q 178 617 151 556 q 249 723 204 678 q 356 794 294 768 q 486 821 417 821 l 486 811 q 360 785 419 811 q 256 716 300 760 q 185 613 211 672 q 160 486 160 553 q 185 360 160 419 q 256 256 211 300 q 360 185 300 211 q 486 160 419 160 l 486 151 q 356 178 417 151 q 249 249 294 204 q 178 356 204 294 q 151 486 151 417 m 486 675 l 486 667 l 486 306 l 486 297 l 486 250 q 394 269 438 250 q 319 319 351 288 q 269 394 288 351 q 250 486 250 438 q 269 578 250 535 q 319 653 288 621 q 394 703 351 685 q 486 722 438 722 l 486 675 z "},"d":{"ha":972,"x_min":0,"x_max":708,"o":"m 682 486 q 646 665 682 581 q 547 811 610 749 q 401 910 485 874 q 222 946 317 946 l 222 972 q 411 934 322 972 q 566 830 500 896 q 670 675 632 764 q 708 486 708 586 q 670 297 708 386 q 566 142 632 208 q 411 38 500 76 q 222 0 322 0 l 222 26 q 401 63 317 26 q 547 161 485 99 q 646 308 610 224 q 682 486 682 392 m 0 972 l 89 972 l 89 0 l 0 0 l 0 972 m 229 156 q 356 181 297 156 q 460 251 415 207 q 530 354 504 294 q 556 481 556 414 q 531 606 556 547 q 463 708 506 664 q 361 778 419 751 q 238 806 303 804 l 238 532 l 224 532 l 222 819 l 229 819 q 362 793 300 819 q 469 721 424 767 q 542 613 515 675 q 569 481 569 551 q 542 348 569 410 q 469 240 515 286 q 362 167 424 194 q 229 140 300 140 l 229 156 m 125 897 l 125 0 l 110 0 l 110 972 l 125 972 l 125 904 l 229 904 q 394 871 317 904 q 528 780 471 838 q 619 645 586 722 q 653 481 653 568 q 619 316 653 393 q 528 181 586 239 q 394 90 471 124 q 229 57 317 57 l 225 57 l 225 64 l 229 64 q 392 97 315 64 q 524 185 468 129 q 613 318 581 242 q 646 481 646 394 q 613 642 646 567 q 524 775 581 718 q 392 865 468 832 q 229 897 315 897 l 125 897 z "},"e":{"ha":840,"x_min":0,"x_max":468,"o":"m 19 972 l 19 972 l 468 972 l 468 932 l 19 932 l 19 889 l 468 889 l 468 850 l 19 850 l 19 806 l 468 806 l 468 768 l 19 768 l 19 721 l 468 721 l 468 682 l 19 682 l 19 638 l 468 638 l 468 600 l 19 600 l 19 554 l 468 554 l 468 488 l 19 488 l 279 40 l 468 40 l 468 0 l 0 0 l 0 13 l 0 40 l 0 488 l 0 554 l 0 600 l 0 638 l 0 682 l 0 721 l 0 768 l 0 806 l 0 850 l 0 889 l 0 932 l 0 972 l 0 972 l 19 972 l 19 972 z "},"f":{"ha":819,"x_min":0,"x_max":690,"o":"m 83 972 l 690 972 l 690 849 l 83 849 l 83 972 m 89 781 l 89 789 l 690 789 l 690 781 l 89 781 m 51 151 l 51 0 l 0 0 l 0 972 l 51 972 l 51 763 l 150 583 l 476 583 l 476 575 l 154 575 l 167 551 l 474 551 l 474 467 l 208 467 l 208 467 l 206 467 l 51 749 l 51 478 l 313 0 l 304 0 l 51 464 l 51 267 l 197 0 l 189 0 l 51 251 l 51 167 l 142 0 l 135 0 l 51 151 z "},"g":{"ha":1044,"x_min":0,"x_max":826,"o":"m 826 364 l 826 274 l 743 274 l 743 0 l 721 0 l 682 0 l 486 0 q 297 38 386 0 q 142 142 208 76 q 38 297 76 208 q 0 486 0 386 q 38 675 0 586 q 142 830 76 764 q 297 934 208 896 q 486 972 386 972 l 486 931 q 313 895 394 931 q 172 799 232 860 q 76 658 111 739 q 42 486 42 578 q 76 313 42 394 q 172 172 111 232 q 313 76 232 111 q 486 42 394 42 l 682 42 l 682 76 l 486 76 q 326 108 401 76 q 196 196 251 140 q 108 326 140 251 q 76 486 76 401 q 108 646 76 571 q 196 776 140 721 q 326 864 251 832 q 486 896 401 896 l 486 854 q 343 825 410 854 q 226 746 276 796 q 147 629 176 696 q 118 486 118 563 q 147 343 118 410 q 226 226 176 276 q 343 147 276 176 q 486 118 410 118 l 682 118 l 682 157 l 486 157 q 358 183 418 157 q 253 253 299 208 q 183 358 208 299 q 157 486 157 418 q 183 614 157 554 q 253 718 208 674 q 358 789 299 763 q 486 815 418 815 l 486 801 q 363 776 421 801 q 263 709 306 751 q 196 609 221 667 q 171 486 171 551 q 196 363 171 421 q 263 263 221 306 q 363 196 306 221 q 486 171 421 171 l 682 171 l 682 274 l 601 274 l 601 364 l 826 364 m 485 243 q 394 261 436 243 q 319 311 351 279 q 269 385 288 343 q 251 476 251 428 q 269 567 251 525 q 319 642 288 610 q 394 692 351 674 q 485 710 436 710 l 485 243 z "},"h":{"ha":924,"x_min":0,"x_max":582,"o":"m 0 0 l 0 972 l 92 972 l 92 0 l 0 0 m 442 682 l 442 972 l 449 972 l 449 682 l 449 565 l 449 0 l 442 0 l 442 351 l 140 351 l 140 0 l 133 0 l 133 972 l 140 972 l 140 682 l 442 682 m 442 467 l 442 565 l 140 565 l 140 467 l 442 467 m 490 972 l 582 972 l 582 0 l 490 0 l 490 972 z "},"i":{"ha":518,"x_min":0,"x_max":183,"o":"m 78 736 l 106 736 l 106 0 l 78 0 l 78 736 m 92 972 q 157 945 131 972 q 183 881 183 918 q 157 815 183 842 q 92 789 131 789 q 27 815 54 789 q 0 881 0 842 q 27 945 0 918 q 92 972 54 972 m 92 806 q 144 827 124 806 q 165 881 165 849 q 144 933 165 911 q 92 954 124 954 q 40 933 61 954 q 18 881 18 911 q 40 827 18 849 q 92 806 61 806 m 92 933 q 129 918 114 933 q 144 881 144 903 q 129 843 144 858 q 92 828 114 828 q 54 843 69 828 q 39 881 39 858 q 54 918 39 903 q 92 933 69 933 m 92 857 q 115 881 115 857 q 109 897 115 890 q 92 904 103 904 q 75 897 82 904 q 68 881 68 890 q 75 863 68 869 q 92 857 82 857 z "},"j":{"ha":760,"x_min":0,"x_max":438,"o":"m 438 353 l 438 350 q 384 171 435 251 q 251 46 333 90 l 243 40 q 166 10 207 21 q 81 0 125 0 l 0 0 l 0 115 l 79 115 q 183 143 136 115 l 108 272 l 104 272 q 82 294 82 272 q 88 310 82 303 q 104 317 94 317 q 126 294 126 317 q 118 276 126 282 l 192 147 q 232 179 214 161 l 103 400 q 100 399 101 400 q 97 399 99 399 q 81 405 88 399 q 74 421 74 411 q 96 443 74 443 q 118 421 118 443 q 111 406 118 413 l 239 186 l 260 150 l 294 90 q 331 124 315 107 l 101 517 l 96 517 q 72 539 75 517 q 78 554 72 547 q 94 561 85 561 q 117 539 117 561 q 110 522 117 528 l 338 132 q 368 172 354 151 l 100 632 q 97 631 99 632 q 94 631 96 631 q 72 653 72 631 q 78 669 72 663 q 93 675 85 675 q 109 669 103 675 q 117 654 115 663 q 110 638 117 644 l 374 181 q 400 235 389 204 l 94 761 l 93 761 q 71 783 71 761 q 77 799 71 792 q 92 806 83 806 q 115 783 113 806 q 104 764 115 771 l 317 400 l 310 972 l 438 972 l 438 364 l 438 353 m 82 14 q 236 53 165 14 l 204 108 q 145 84 176 93 q 82 75 114 75 l 82 14 m 240 56 q 262 68 251 61 q 282 82 272 75 l 249 142 q 229 126 239 133 q 208 111 219 118 l 240 56 z "},"k":{"ha":951,"x_min":0,"x_max":750,"o":"m 124 739 l 124 0 l 79 0 l 79 972 l 126 972 l 321 631 l 351 682 l 186 972 l 194 972 l 354 689 l 518 972 l 750 972 l 467 492 l 746 0 l 738 0 l 463 485 l 432 433 l 679 0 l 671 0 l 429 426 l 400 378 l 614 0 l 607 0 l 396 371 l 368 324 l 551 0 l 543 0 l 124 739 m 124 964 l 124 864 l 289 574 l 317 624 l 124 964 m 124 850 l 124 753 l 257 519 l 285 567 l 124 850 m 44 972 l 44 0 l 0 0 l 0 972 l 44 972 m 208 81 l 208 0 l 164 0 l 164 81 l 208 81 z "},"l":{"ha":764,"x_min":0,"x_max":453,"o":"m 417 194 l 453 194 l 453 54 l 453 1 l 453 0 l 74 0 l 74 1 l 74 54 l 74 194 l 267 194 l 28 490 l 28 0 l 0 0 l 0 971 l 28 971 l 28 676 l 417 194 m 275 194 l 338 194 l 28 579 l 28 500 l 275 194 m 347 194 l 408 194 l 28 665 l 28 590 l 347 194 m 79 972 l 79 892 l 51 892 l 51 972 l 79 972 m 133 972 l 133 892 l 106 892 l 106 972 l 133 972 z "},"m":{"ha":1153,"x_min":0,"x_max":808,"o":"m 404 586 l 808 972 l 808 0 l 671 0 l 671 0 l 404 383 l 138 0 l 138 0 l 0 0 l 0 972 l 404 586 m 138 76 l 369 419 l 138 640 l 138 76 m 671 76 l 671 640 l 439 419 l 671 76 z "},"n":{"ha":965,"x_min":0,"x_max":849,"o":"m 101 899 l 101 0 l 82 0 l 82 899 l 0 899 l 0 972 l 268 972 l 271 967 l 271 967 l 283 946 l 310 899 l 310 899 l 679 247 l 679 972 l 689 972 l 747 972 l 849 972 l 849 0 l 679 0 l 679 32 l 189 899 l 146 899 l 656 0 l 647 0 l 228 740 l 228 0 l 174 0 l 174 836 l 143 890 l 143 0 l 133 0 l 133 899 l 101 899 m 301 899 l 253 899 l 679 147 l 679 232 l 301 899 m 244 899 l 197 899 l 679 47 l 679 133 l 244 899 z "},"o":{"ha":1138,"x_min":0,"x_max":972,"o":"m 910 724 q 956 609 940 669 q 972 486 972 549 q 934 297 972 386 q 830 142 896 208 q 675 38 764 76 q 486 0 586 0 q 448 1 467 0 q 410 6 429 3 l 401 7 q 242 65 315 22 q 115 172 169 108 q 31 316 61 236 q 0 486 0 396 q 38 675 0 586 q 142 830 76 764 q 297 934 208 896 q 486 972 386 972 q 706 919 603 972 q 878 774 808 867 l 882 768 l 575 539 l 571 544 q 542 574 558 561 q 497 587 518 585 q 461 586 476 589 q 406 550 428 578 q 383 486 383 522 q 413 413 383 443 q 486 383 443 383 q 559 413 529 383 q 589 486 589 443 l 589 489 l 592 492 l 906 731 l 910 724 m 107 204 q 229 89 157 138 l 947 588 q 901 711 935 653 l 603 483 q 567 403 600 436 q 486 369 533 369 q 435 382 458 369 q 394 414 411 394 l 107 204 m 486 13 q 645 40 569 13 q 781 117 721 68 q 885 233 842 165 q 946 378 928 300 l 425 17 q 486 13 454 13 m 950 397 q 957 441 954 419 q 960 486 960 463 q 951 574 960 529 l 240 82 q 407 19 315 36 l 950 397 z "},"p":{"ha":854,"x_min":0,"x_max":579,"o":"m 289 940 q 389 920 342 940 q 471 865 436 900 q 526 783 506 831 q 546 683 546 736 q 526 583 546 631 q 471 501 506 536 q 389 447 436 467 q 289 426 342 426 q 189 447 236 426 q 107 501 142 467 q 52 583 72 536 q 32 683 32 631 q 52 783 32 736 q 107 865 72 831 q 189 920 142 900 q 289 940 236 940 m 289 435 q 385 454 340 435 q 465 508 431 474 q 518 587 499 542 q 538 683 538 632 q 518 780 538 735 q 465 858 499 825 q 385 911 431 892 q 289 931 340 931 q 192 911 238 931 q 114 858 147 892 q 61 780 81 825 q 42 683 42 735 q 61 587 42 632 q 114 508 81 542 q 192 454 147 474 q 289 435 238 435 m 289 908 q 377 890 336 908 q 449 842 418 872 q 497 770 479 811 q 515 683 515 729 q 497 595 515 636 q 449 524 479 554 q 377 475 418 493 q 289 457 336 457 q 202 475 243 457 q 131 524 161 493 q 82 595 100 554 q 64 683 64 636 q 82 770 64 729 q 131 842 100 811 q 202 890 161 872 q 289 908 243 908 m 289 467 q 373 484 333 467 q 442 531 413 501 q 488 599 471 560 q 506 683 506 639 q 488 767 506 728 q 442 835 471 806 q 373 881 413 864 q 289 899 333 899 q 205 881 244 899 q 136 835 165 864 q 90 767 107 806 q 74 683 74 728 q 90 599 74 639 q 136 531 107 560 q 205 484 165 501 q 289 467 244 467 m 289 871 q 363 856 328 871 q 423 816 397 842 q 463 756 449 790 q 478 683 478 722 q 463 610 478 644 q 423 549 449 575 q 363 509 397 524 q 289 494 328 494 q 216 509 250 494 q 156 549 182 524 q 116 610 131 575 q 101 683 101 644 q 116 756 101 722 q 156 816 131 790 q 216 856 182 842 q 289 871 250 871 m 289 504 q 359 518 326 504 q 416 556 392 532 q 454 613 440 581 q 468 683 468 646 q 454 753 468 721 q 416 809 440 785 q 359 847 392 833 q 289 861 326 861 q 219 847 251 861 q 163 809 188 833 q 125 753 139 785 q 111 683 111 721 q 125 613 111 646 q 163 556 139 581 q 219 518 188 532 q 289 504 251 504 m 289 839 q 349 826 321 839 q 399 793 378 814 q 433 744 421 772 q 446 683 446 715 q 433 623 446 651 q 399 573 421 594 q 349 539 378 551 q 289 526 321 526 q 228 539 257 526 q 179 573 200 551 q 146 623 158 594 q 133 683 133 651 q 146 744 133 715 q 179 793 158 772 q 228 826 200 814 q 289 839 257 839 m 289 536 q 346 548 319 536 q 392 579 372 560 q 424 626 413 599 q 436 683 436 653 q 424 740 436 714 q 392 786 413 767 q 346 817 372 806 q 289 829 319 829 q 232 817 258 829 q 185 786 206 806 q 154 740 165 767 q 143 683 143 714 q 154 626 143 653 q 185 579 165 599 q 232 548 206 560 q 289 536 258 536 m 289 808 q 378 772 342 808 q 415 683 415 736 q 378 594 415 631 q 289 557 342 557 q 200 594 236 557 q 164 683 164 631 q 200 772 164 736 q 289 808 236 808 m 289 567 q 334 576 313 567 q 372 601 356 585 q 397 638 388 617 q 406 683 406 658 q 372 765 406 732 q 289 799 338 799 q 207 765 240 799 q 174 683 174 732 q 183 638 174 658 q 207 601 192 617 q 244 576 222 585 q 289 567 265 567 m 289 782 q 360 753 331 782 q 389 683 389 724 q 360 613 389 642 q 289 583 331 583 q 219 613 249 583 q 190 683 190 642 q 219 753 190 724 q 289 782 249 782 m 289 593 q 353 619 326 593 q 379 683 379 646 q 353 746 379 719 q 289 772 326 772 q 226 746 253 772 q 200 683 200 719 q 226 619 200 646 q 289 593 253 593 m 289 972 q 401 949 349 972 q 494 887 454 926 q 556 795 533 847 q 579 683 579 743 q 556 571 579 624 q 494 478 533 518 q 401 416 454 439 q 289 393 349 393 q 190 410 236 393 q 106 460 143 428 l 106 0 l 4 0 l 4 631 q 0 683 0 656 q 23 795 0 743 q 85 887 46 847 q 176 949 124 926 q 289 972 229 972 m 289 403 q 398 425 347 403 q 487 485 449 447 q 547 574 525 524 q 569 683 569 625 q 547 792 569 742 q 487 881 525 843 q 398 940 449 918 q 289 963 347 963 q 180 940 231 963 q 92 881 129 918 q 32 792 54 843 q 10 683 10 742 q 32 574 10 625 q 92 485 54 524 q 180 425 129 447 q 289 403 231 403 z "},"q":{"ha":1138,"x_min":1,"x_max":971,"o":"m 485 749 q 586 728 539 749 q 669 673 633 708 q 725 590 704 638 q 746 489 746 543 q 725 387 746 435 q 669 303 704 339 q 586 248 633 268 q 485 228 539 228 l 485 238 q 582 257 536 238 q 663 311 628 276 q 717 391 697 346 q 736 489 736 436 q 717 586 736 540 q 663 667 697 632 q 582 721 628 701 q 485 740 536 740 l 485 749 m 679 489 q 664 413 679 449 q 622 351 649 378 q 560 310 596 325 q 485 294 525 294 l 481 294 l 481 313 l 485 313 q 553 326 521 313 q 609 364 585 340 q 647 420 633 388 q 661 489 661 453 q 647 557 661 525 q 609 613 633 589 q 553 650 585 636 q 485 664 521 664 l 481 664 l 481 683 l 485 683 q 560 668 525 683 q 622 626 596 653 q 664 565 649 600 q 679 489 679 529 m 485 382 q 560 413 529 382 q 592 489 592 444 q 560 564 592 533 q 485 594 529 594 l 485 604 q 567 571 533 604 q 600 489 600 538 q 567 407 600 440 q 485 374 533 374 l 485 382 m 433 486 q 449 522 433 507 q 485 538 464 538 q 521 522 506 538 q 536 486 536 507 q 521 450 536 465 q 485 435 506 435 q 449 450 464 435 q 433 486 433 465 m 499 486 q 485 500 499 500 q 471 486 471 500 q 485 472 471 472 q 499 486 499 472 m 485 374 q 403 407 436 374 q 369 489 369 440 q 403 571 369 538 q 485 604 436 604 l 485 594 q 410 564 440 594 q 379 489 379 533 q 410 413 379 444 q 485 382 440 382 l 485 374 m 971 489 q 926 285 971 379 q 806 124 882 190 l 963 0 l 793 0 l 715 61 q 607 17 664 33 q 488 0 550 0 q 299 38 388 0 q 144 142 210 76 q 40 297 78 208 q 1 486 1 386 q 40 674 1 586 q 143 828 78 763 q 297 933 208 894 q 485 972 385 972 q 674 935 585 972 q 828 831 763 897 q 933 677 894 765 q 971 489 971 589 m 790 135 q 909 291 865 200 q 953 489 953 382 q 916 669 953 585 q 816 817 879 754 q 668 917 753 881 q 488 954 583 954 q 305 917 390 954 q 156 817 219 881 q 56 668 93 753 q 19 486 19 583 q 56 305 19 390 q 156 156 93 219 q 304 56 219 93 q 485 18 389 18 q 597 33 543 18 q 700 74 651 47 l 579 168 l 581 168 q 485 154 538 154 l 485 163 q 612 188 553 163 q 715 258 671 214 q 785 363 760 303 q 811 489 811 422 q 785 615 811 556 q 715 719 760 675 q 612 788 671 763 q 485 814 553 814 l 485 824 q 615 797 554 824 q 722 726 676 771 q 793 619 767 681 q 819 489 819 558 q 783 335 819 406 q 683 219 746 265 l 790 135 z "},"r":{"ha":899,"x_min":0,"x_max":633,"o":"m 438 346 l 633 0 l 617 0 l 579 0 l 576 0 l 528 0 l 524 0 l 478 0 l 469 0 l 293 310 l 293 322 q 410 347 356 322 q 507 415 465 372 q 572 516 549 458 q 596 639 596 574 q 572 762 596 704 q 507 863 549 819 q 410 931 465 906 q 293 956 356 956 l 293 968 q 416 942 358 968 q 517 872 474 917 q 585 767 560 826 q 610 639 610 707 q 562 465 610 543 q 438 346 514 386 m 513 639 q 495 551 513 592 q 448 478 478 510 q 378 429 418 447 q 293 411 339 411 l 243 411 l 236 411 l 49 411 l 49 0 l 0 0 l 0 972 l 49 972 l 49 453 l 236 453 l 236 546 q 174 574 200 547 q 149 636 149 600 q 174 698 149 672 q 236 725 200 724 l 236 972 l 243 972 l 243 725 q 304 698 279 724 q 329 636 329 672 q 304 574 329 600 q 243 546 279 547 l 243 453 l 293 453 q 363 467 331 453 q 419 507 394 482 q 457 566 443 532 q 471 639 471 600 q 457 712 471 678 q 419 771 443 746 q 363 810 394 796 q 293 825 331 825 l 293 867 q 378 849 339 867 q 448 799 418 831 q 495 727 478 768 q 513 639 513 686 m 564 636 q 542 746 564 694 q 484 835 521 797 q 398 896 447 874 q 293 918 349 918 l 293 921 q 400 899 350 921 q 487 838 450 876 q 545 747 524 799 q 567 636 567 694 q 545 524 567 576 q 487 433 524 472 q 400 372 450 394 q 293 350 350 350 l 293 354 q 398 376 349 354 q 484 437 447 399 q 542 526 521 475 q 564 636 564 578 z "},"s":{"ha":814,"x_min":0,"x_max":589,"o":"m 571 388 q 584 342 579 367 q 589 290 589 318 q 565 175 589 229 q 501 83 542 122 q 407 22 461 44 q 293 0 357 0 q 188 18 236 0 q 101 67 140 35 q 38 143 63 99 q 0 243 10 189 l 103 272 q 124 204 107 236 q 164 149 140 169 q 221 111 190 122 q 290 97 250 97 q 363 111 329 97 q 396 128 381 118 q 425 149 411 138 q 449 176 438 161 q 467 207 460 190 q 483 281 483 240 q 468 350 483 324 q 429 400 453 381 q 374 438 403 422 q 342 452 358 444 q 310 467 326 460 l 253 492 q 213 511 232 501 q 175 532 194 521 q 108 581 139 551 q 65 644 79 608 q 49 733 49 682 q 69 832 49 788 q 128 907 90 875 q 213 956 167 940 q 311 972 258 972 q 454 935 389 972 q 554 826 517 894 l 474 775 l 474 496 q 521 458 499 481 q 571 388 551 426 m 229 854 q 200 835 214 847 q 181 813 189 824 q 165 789 172 801 q 153 729 153 761 q 168 676 153 700 q 203 636 185 651 q 229 618 214 626 l 229 854 m 288 874 q 250 864 267 871 q 236 858 242 861 l 236 614 q 243 610 239 611 q 250 606 247 608 q 288 588 268 599 l 288 874 m 349 871 q 310 875 329 875 l 294 875 l 294 585 q 297 583 296 583 q 300 582 299 583 l 349 561 l 349 871 m 408 846 l 406 849 q 356 869 385 863 l 356 558 l 363 554 l 408 533 l 408 846 m 467 779 q 415 840 442 819 l 415 529 q 433 521 424 525 q 449 511 442 517 q 458 506 454 508 q 467 501 463 504 l 467 779 m 175 338 q 207 379 189 363 l 26 601 l 29 604 l 210 382 q 294 413 247 413 q 390 374 351 413 q 429 279 429 335 q 419 227 429 251 q 390 184 408 203 q 347 155 372 165 q 294 144 322 144 q 247 153 269 144 q 207 178 225 163 q 178 215 189 194 q 163 261 167 236 l 26 431 l 29 433 l 163 268 q 161 279 161 272 q 174 333 161 308 l 25 515 l 29 518 l 175 338 m 294 375 q 226 347 254 375 q 199 279 199 319 q 226 210 199 239 q 294 182 254 182 q 363 210 335 182 q 392 279 392 239 q 363 347 392 319 q 294 375 335 375 m 294 206 q 244 227 265 206 q 222 279 222 249 q 244 331 222 310 q 294 351 265 351 q 347 331 325 351 q 368 279 368 310 q 347 227 368 249 q 294 206 325 206 m 294 306 q 276 298 283 306 q 269 279 269 290 q 276 260 269 268 q 294 253 283 253 q 321 279 321 253 q 313 298 321 290 q 294 306 306 306 z "},"t":{"ha":875,"x_min":0,"x_max":550,"o":"m 296 801 l 296 783 l 421 625 l 296 625 l 296 603 l 421 443 l 296 443 l 296 431 l 421 271 l 296 271 l 296 258 q 374 215 343 250 q 406 131 406 179 q 395 79 406 103 q 367 38 385 56 q 326 10 350 21 q 275 0 301 0 q 224 10 247 0 q 183 38 200 21 q 155 79 165 56 q 144 131 144 103 q 176 215 144 179 q 254 258 207 250 l 254 271 l 129 271 l 254 431 l 254 443 l 129 443 l 254 604 l 254 625 l 129 625 l 254 785 l 254 801 l 0 801 l 0 972 l 550 972 l 550 801 l 296 801 m 381 131 q 351 201 381 171 q 282 235 322 232 l 268 235 q 199 201 228 232 q 171 131 171 171 q 201 56 171 86 q 275 25 231 25 q 350 56 319 25 q 381 131 381 86 m 218 131 q 235 172 218 154 q 275 189 251 189 q 315 172 299 189 q 332 131 332 154 q 315 90 332 107 q 275 74 299 74 q 235 90 251 74 q 218 131 218 107 z "},"u":{"ha":947,"x_min":0,"x_max":803,"o":"m 401 214 q 331 243 360 214 q 301 314 301 272 q 318 369 301 344 q 361 404 335 393 l 361 863 l 382 863 l 382 411 q 392 413 388 413 q 401 414 396 414 q 411 413 407 414 q 421 411 415 413 l 421 863 l 442 863 l 442 404 q 485 369 468 393 q 501 314 501 344 q 472 243 501 272 q 401 214 442 214 m 401 358 q 369 346 382 358 q 356 314 356 333 q 369 281 356 294 q 401 268 382 268 q 433 281 421 268 q 446 314 446 294 q 433 346 446 333 q 401 358 421 358 m 803 972 l 803 390 l 801 390 q 767 238 799 308 q 681 114 735 167 q 555 31 626 61 q 401 0 483 0 q 248 31 319 0 q 122 113 176 61 q 35 236 68 165 q 0 388 3 307 l 0 969 l 54 969 l 54 447 l 401 108 l 747 447 l 747 972 l 803 972 m 54 390 q 79 270 56 326 q 142 169 103 214 q 235 96 182 125 q 350 58 289 67 l 396 103 l 54 436 l 54 390 m 401 54 q 422 55 413 54 q 443 57 432 56 l 401 97 l 360 57 q 381 55 371 56 q 401 54 390 54 m 747 436 l 407 103 l 453 58 q 567 97 514 68 q 660 171 621 126 q 723 272 700 215 q 747 392 746 328 l 747 436 z "},"v":{"ha":1056,"x_min":0,"x_max":769,"o":"m 0 972 l 769 972 l 385 0 l 0 972 m 688 915 l 83 915 l 206 607 l 564 607 l 688 915 z "},"w":{"ha":1153,"x_min":0,"x_max":938,"o":"m 839 972 l 938 972 l 938 0 l 604 385 l 483 126 l 532 22 l 504 22 l 469 97 l 435 22 l 407 22 l 456 126 l 335 385 l 0 0 l 0 972 l 99 972 l 99 972 l 343 426 l 343 972 l 446 972 l 446 207 l 469 157 l 493 207 l 493 972 l 596 972 l 596 426 l 839 972 l 839 972 m 99 251 l 286 471 l 99 886 l 99 251 m 839 251 l 839 886 l 651 464 l 839 251 z "},"x":{"ha":1042,"x_min":0,"x_max":915,"o":"m 915 972 l 599 436 l 857 0 l 846 0 l 594 428 l 560 369 l 778 0 l 768 0 l 556 361 l 518 299 l 696 0 l 583 0 l 461 203 l 342 0 l 332 0 l 457 211 l 419 274 l 258 0 l 253 0 l 417 278 l 381 339 l 179 0 l 169 0 l 375 347 l 340 404 l 101 0 l 92 0 l 336 413 l 0 972 l 122 972 l 393 511 l 431 574 l 194 972 l 204 972 l 435 582 l 469 640 l 274 972 l 283 972 l 474 649 l 665 972 l 675 972 l 479 640 l 514 582 l 743 972 l 753 972 l 518 574 l 554 511 l 826 972 l 832 972 l 557 507 l 594 444 l 906 972 l 915 972 m 550 503 l 513 565 l 479 507 l 515 444 l 550 503 m 474 632 l 440 574 l 474 515 l 508 574 l 474 632 m 399 503 l 433 444 l 469 507 l 435 565 l 399 503 m 438 436 l 474 375 l 511 436 l 474 499 l 438 436 m 514 307 l 550 369 l 513 432 l 476 371 l 514 307 m 556 378 l 589 436 l 553 499 l 518 440 l 556 378 z "},"y":{"ha":1000,"x_min":0,"x_max":763,"o":"m 646 972 l 763 972 l 522 522 l 522 524 l 522 522 l 522 522 l 522 50 l 522 25 l 522 0 l 279 0 l 279 17 l 279 42 l 279 50 l 279 188 l 415 188 l 0 972 l 4 972 l 281 449 l 299 481 l 39 972 l 43 972 l 300 485 l 314 510 l 68 972 l 72 972 l 315 514 l 332 544 l 106 972 l 110 972 l 333 549 l 347 574 l 138 972 l 142 972 l 350 578 l 364 603 l 168 972 l 176 972 l 367 611 l 558 972 l 575 972 l 375 596 l 390 568 l 604 972 l 615 972 l 396 557 l 396 558 l 411 528 l 415 536 l 415 536 l 415 536 l 646 972 l 646 972 z "},"z":{"ha":875,"x_min":0,"x_max":810,"o":"m 810 744 l 810 736 l 17 228 l 810 228 l 810 176 l 0 176 l 0 225 l 0 232 l 797 744 l 682 744 l 0 306 l 0 321 l 658 744 l 0 744 l 0 796 l 810 796 l 810 744 l 810 744 m 0 832 l 0 883 l 810 883 l 810 832 l 0 832 m 810 972 l 810 921 l 0 921 l 0 972 l 810 972 m 0 0 l 0 51 l 810 51 l 810 0 l 0 0 m 0 88 l 0 140 l 810 140 l 810 88 l 0 88 z "},"~":{"ha":811,"x_min":0,"x_max":672,"o":"m 672 479 l 668 471 q 665 465 667 468 q 660 457 663 461 q 635 428 653 449 q 594 390 618 408 q 536 360 574 375 q 461 347 500 347 q 358 369 403 347 q 317 391 336 381 q 278 413 297 401 q 211 433 246 433 q 151 414 179 433 q 114 379 126 399 l 96 349 l 0 419 l 4 428 q 13 442 6 433 q 38 472 18 450 q 78 510 54 492 q 136 539 100 526 q 211 553 169 553 q 315 529 271 553 q 357 508 338 518 q 394 486 376 497 q 461 467 429 467 q 521 485 494 467 q 560 521 546 501 l 576 550 l 672 479 m 282 303 q 265 261 282 279 q 222 243 247 243 q 180 261 197 243 q 163 303 163 279 q 180 346 163 328 q 222 364 197 364 q 265 346 247 364 q 282 303 282 328 z "},"!":{"ha":315,"x_min":0,"x_max":175,"o":"m 89 132 q 122 108 108 125 q 136 68 136 92 q 116 20 136 40 q 68 0 96 0 q 20 20 40 0 q 0 68 0 40 q 20 116 0 96 q 68 136 40 136 q 81 133 72 136 l 36 218 l 6 218 l 6 276 l 6 406 l 4 797 l 65 682 l 61 690 l 89 640 l 96 625 l 114 592 l 114 900 l 0 900 l 0 907 l 114 907 l 114 922 l 0 922 l 0 972 l 119 972 l 119 932 l 119 922 l 119 582 l 118 528 l 117 218 l 104 218 l 128 174 l 125 172 l 101 218 l 89 218 l 65 218 l 42 218 l 89 132 m 174 354 q 165 328 174 339 q 142 317 156 317 l 142 390 q 165 380 156 390 q 174 354 174 369 m 143 296 q 165 285 156 296 q 175 260 175 275 q 165 234 175 244 q 143 224 156 224 l 143 296 z "},"\"":{"ha":614,"x_min":0,"x_max":338,"o":"m 69 940 q 119 919 99 940 q 139 871 139 899 q 119 823 139 843 q 71 801 99 803 l 93 760 l 90 760 l 68 801 q 58 802 63 801 q 49 804 54 803 l 101 706 l 94 701 l 38 810 q 10 835 21 818 q 0 871 0 851 q 20 919 0 899 q 69 940 40 940 m 299 864 q 338 801 338 846 q 317 752 338 772 q 268 732 297 732 q 219 752 240 732 q 199 801 199 772 q 218 849 199 829 q 265 869 238 868 l 244 908 l 247 910 l 268 871 q 278 870 274 871 q 288 868 282 869 l 235 967 l 242 971 l 299 864 z "},"#":{"ha":1118,"x_min":1,"x_max":925,"o":"m 703 611 l 654 361 l 863 361 l 849 299 l 640 299 l 585 0 l 522 0 l 578 299 l 526 299 l 468 0 l 406 0 l 465 299 l 274 299 l 217 0 l 185 0 l 238 299 l 1 299 l 15 361 l 251 361 l 300 611 l 64 611 l 78 674 l 315 674 l 372 972 l 404 972 l 349 674 l 396 674 l 454 972 l 517 972 l 457 674 l 654 674 l 710 972 l 772 972 l 717 674 l 925 674 l 911 611 l 703 611 m 640 611 l 335 611 l 286 361 l 592 361 l 640 611 m 464 381 q 389 411 419 381 q 358 486 358 442 q 389 561 358 531 q 464 592 419 592 q 538 561 507 592 q 569 486 569 531 q 538 411 569 442 q 464 381 507 381 m 464 536 q 428 522 443 536 q 414 486 414 507 q 428 451 414 465 q 464 436 443 436 q 498 451 483 436 q 513 486 513 465 q 498 522 513 507 q 464 536 483 536 z "},"$":{"ha":824,"x_min":0,"x_max":631,"o":"m 358 574 l 358 817 q 450 788 407 810 q 526 729 493 765 l 531 732 q 451 792 496 769 q 358 822 407 815 l 358 843 q 481 801 425 835 q 550 744 521 778 l 556 750 q 485 807 522 785 q 358 851 425 843 l 358 972 l 282 972 l 282 851 q 274 850 278 850 q 265 849 269 850 l 265 975 l 253 975 l 253 846 q 152 806 199 835 q 72 735 106 776 q 19 642 39 694 q 0 533 0 590 l 0 529 l 244 529 l 244 538 l 32 538 q 56 648 33 596 q 119 738 79 700 l 253 501 l 253 194 q 118 279 171 211 l 111 274 q 175 215 139 238 q 253 183 211 193 l 253 117 q 128 169 185 129 q 38 272 72 210 l 29 267 q 124 161 65 203 q 253 107 182 119 l 253 4 l 265 4 l 265 104 q 276 103 271 104 q 285 103 281 103 l 285 3 l 361 3 l 363 106 q 460 139 414 114 l 463 140 q 467 143 464 140 l 476 149 q 589 264 547 192 q 631 424 631 336 l 631 426 l 631 457 l 342 457 l 293 544 l 293 813 l 349 750 l 349 574 l 358 574 m 253 572 l 146 761 q 135 753 138 756 l 253 543 l 253 572 m 253 811 q 206 796 229 806 q 163 774 183 786 l 253 614 l 253 811 m 253 839 q 156 800 200 828 q 78 732 111 772 q 27 642 46 692 q 7 538 8 593 l 28 538 q 45 635 28 589 q 93 717 63 681 q 164 780 124 754 q 253 817 204 806 l 253 839 m 282 179 q 274 180 278 179 q 265 181 269 181 l 265 115 q 282 114 271 114 l 282 179 m 282 450 l 265 479 l 265 192 q 274 190 269 190 q 282 189 278 190 l 282 450 m 282 521 l 265 550 l 265 521 l 282 492 l 282 521 m 282 817 q 265 814 276 817 l 265 592 l 282 563 l 282 817 m 265 819 q 275 822 271 821 q 285 822 279 822 l 282 825 l 282 843 q 265 840 276 843 l 265 819 m 385 381 l 460 249 q 507 308 488 275 q 533 381 526 342 l 385 381 m 293 474 l 432 226 q 438 231 435 229 q 444 236 442 233 l 293 503 l 293 474 m 364 261 l 364 196 q 415 217 389 204 l 293 432 l 293 386 l 364 261 m 363 117 q 410 128 386 121 q 454 147 433 136 l 419 207 q 393 194 407 200 q 364 186 379 189 l 363 117 m 485 165 l 449 226 q 438 218 446 224 l 472 157 l 485 165 m 500 178 q 578 266 547 214 q 618 381 610 318 l 544 381 q 517 303 538 339 q 465 240 496 268 l 500 178 z "},"%":{"ha":1065,"x_min":-6,"x_max":978,"o":"m 976 960 l 4 -4 l -4 4 l 968 968 l 976 960 m 811 328 q 876 315 846 328 q 928 279 906 301 q 965 226 951 257 q 978 161 978 196 q 965 97 978 126 q 928 44 951 67 q 876 8 906 21 q 811 -6 846 -6 q 747 8 776 -6 q 694 44 717 21 q 658 97 671 67 q 644 161 644 126 q 658 226 644 196 q 694 279 671 257 q 747 315 717 301 q 811 328 776 328 m 811 6 q 872 18 843 6 q 921 51 900 31 q 954 101 942 72 q 967 161 967 129 q 954 222 967 193 q 921 271 942 250 q 872 304 900 292 q 811 317 843 317 q 751 304 779 317 q 701 271 722 292 q 668 222 681 250 q 656 161 656 193 q 668 101 656 129 q 701 51 681 72 q 751 18 722 31 q 811 6 779 6 m 161 636 q 97 649 126 636 q 44 685 67 663 q 8 738 21 708 q -6 803 -6 768 q 8 867 -6 838 q 44 920 21 897 q 97 956 67 943 q 161 969 126 969 q 226 956 196 969 q 279 920 257 943 q 315 867 301 897 q 328 803 328 838 q 315 738 328 768 q 279 685 301 708 q 226 649 257 663 q 161 636 196 636 m 161 958 q 101 946 129 958 q 51 913 72 933 q 18 863 31 892 q 6 803 6 835 q 18 742 6 771 q 51 693 31 714 q 101 660 72 672 q 161 647 129 647 q 222 660 193 647 q 271 693 250 672 q 304 742 292 714 q 317 803 317 771 q 304 863 317 835 q 271 913 292 892 q 222 946 250 933 q 161 958 193 958 m 161 703 q 91 732 121 703 q 61 803 61 761 q 91 874 61 844 q 161 903 121 903 q 232 874 203 903 q 261 803 261 844 q 232 732 261 761 q 161 703 203 703 m 151 353 l 669 854 l 728 794 l 208 293 l 151 353 m 871 653 l 351 150 l 294 211 l 813 713 l 871 653 m 811 261 q 881 232 851 261 q 911 161 911 203 q 881 91 911 121 q 811 61 851 61 q 740 91 769 61 q 711 161 711 121 q 740 232 711 203 q 811 261 769 261 z "},"&":{"ha":1019,"x_min":0,"x_max":693,"o":"m 693 43 l 665 28 l 613 119 q 606 115 610 117 q 600 110 603 113 q 590 100 594 104 q 582 93 585 96 q 473 24 533 49 q 346 0 413 0 q 212 27 275 0 q 101 101 149 54 q 27 212 54 149 q 0 346 0 275 q 20 463 0 407 q 79 567 40 519 q 60 604 60 579 q 72 636 60 624 q 104 649 85 649 q 137 636 124 649 q 150 604 150 624 q 141 577 150 589 q 119 561 132 565 q 56 462 78 517 q 33 346 33 407 q 58 224 33 281 q 125 125 82 168 q 224 58 168 82 q 346 33 281 33 q 510 79 436 33 l 504 88 l 503 92 l 486 121 q 346 81 422 81 q 243 101 292 81 q 158 158 194 122 q 101 243 122 194 q 81 346 81 292 q 94 427 81 388 q 130 499 107 467 q 185 557 153 532 q 258 596 218 582 l 194 735 q 179 804 179 768 q 192 869 179 839 q 228 923 206 900 q 281 959 251 946 q 346 972 311 972 q 411 959 381 972 q 465 923 442 946 q 501 869 488 900 q 514 804 514 839 q 478 700 514 744 q 386 642 442 656 l 619 231 l 619 454 l 653 454 l 653 165 l 653 160 l 649 156 q 643 149 646 153 q 638 142 640 146 l 693 43 m 338 382 l 233 567 q 134 476 171 535 q 97 346 97 417 q 116 251 97 296 q 167 172 135 206 q 244 119 200 139 q 338 97 288 99 l 338 382 m 338 456 l 267 582 q 244 572 253 578 l 338 407 l 338 456 m 338 603 l 318 639 q 244 671 276 647 l 338 490 l 338 603 m 346 97 q 478 135 417 97 l 346 367 l 346 97 m 488 142 q 498 149 493 146 q 507 157 503 153 l 346 442 l 346 392 l 488 142 m 513 99 q 523 106 518 101 q 532 113 528 110 l 515 143 q 496 128 506 133 l 513 99 m 519 86 q 530 93 525 89 q 540 100 535 97 l 535 110 q 525 102 529 106 q 515 94 521 99 l 519 86 m 546 124 q 567 145 557 135 q 585 167 576 156 l 346 588 l 346 475 l 546 124 m 579 135 q 588 142 583 138 q 596 149 592 146 l 588 164 q 547 121 568 138 l 553 111 l 560 118 q 567 125 563 121 q 579 135 572 129 m 606 199 q 611 209 608 204 q 617 219 614 214 l 378 640 q 357 638 364 638 l 606 199 m 619 214 l 619 215 q 614 205 617 210 q 608 194 611 200 l 619 174 l 619 214 z "},"'":{"ha":290,"x_min":0,"x_max":139,"o":"m 69 940 q 119 919 99 940 q 139 871 139 899 q 119 823 139 843 q 71 801 99 803 l 93 760 l 90 760 l 68 801 q 58 802 63 801 q 49 804 54 803 l 101 706 l 94 701 l 38 810 q 10 835 21 818 q 0 871 0 851 q 20 919 0 899 q 69 940 40 940 z "},"(":{"ha":435,"x_min":0,"x_max":336,"o":"m 24 847 l 24 188 l 0 188 l 0 857 l 117 972 l 149 972 l 24 847 l 24 847 m 74 138 l 74 836 l 210 972 l 333 972 l 333 972 l 163 800 l 163 174 l 336 0 l 211 0 l 74 138 l 74 138 z "},")":{"ha":435,"x_min":0,"x_max":336,"o":"m 313 847 l 186 972 l 219 972 l 336 857 l 336 188 l 313 188 l 313 847 m 261 138 l 125 0 l 0 0 l 174 174 l 174 800 l 1 972 l 1 972 l 126 972 l 261 836 l 261 138 z "},"*":{"ha":638,"x_min":0,"x_max":303,"o":"m 303 840 l 176 811 l 258 703 l 229 679 l 169 764 l 169 679 l 133 679 l 133 765 l 74 679 l 44 703 l 126 811 l 0 840 l 15 879 l 133 842 l 133 942 l 132 972 l 133 972 l 169 972 l 171 972 l 169 951 l 169 842 l 288 879 l 303 840 l 303 840 z "},"+":{"ha":624,"x_min":0,"x_max":461,"o":"m 461 533 l 461 446 l 274 446 l 274 256 l 188 256 l 188 446 l 161 446 l 161 256 l 138 256 l 138 446 l 0 446 l 0 533 l 188 533 l 188 717 l 274 717 l 274 533 l 301 533 l 301 717 l 325 717 l 325 533 l 461 533 l 461 533 z "},"-":{"ha":624,"x_min":0,"x_max":399,"o":"m 399 476 l 0 476 l 0 569 l 399 569 l 399 476 l 399 476 m 399 444 l 0 444 l 0 453 l 399 453 l 399 444 l 399 444 m 399 413 l 0 413 l 0 421 l 399 421 l 399 413 l 399 413 z "},",":{"ha":300,"x_min":6,"x_max":144,"o":"m 6 4 q 26 53 6 32 q 75 74 46 74 q 124 53 104 74 q 144 4 144 32 q 134 -32 144 -15 q 107 -57 124 -49 l 50 -165 l 43 -161 l 96 -62 q 86 -65 90 -64 q 76 -65 82 -65 l 54 -107 l 51 -106 l 74 -65 q 26 -44 46 -64 q 6 4 6 -24 z "},".":{"ha":300,"x_min":0,"x_max":139,"o":"m 69 69 q 119 49 99 69 q 139 0 139 29 l 0 0 q 20 49 0 29 q 69 69 40 69 z "},"/":{"ha":625,"x_min":0,"x_max":594,"o":"m 481 972 l 22 0 l 0 0 l 458 972 l 481 972 m 594 972 l 136 0 l 86 0 l 544 972 l 594 972 z "},"@":{"ha":1124,"x_min":0,"x_max":913,"o":"m 804 8 l 804 0 l 486 0 q 297 38 386 0 q 142 142 208 76 q 38 297 76 208 q 0 486 0 386 q 38 675 0 586 q 142 830 76 764 q 297 934 208 896 q 486 972 386 972 q 651 939 574 972 q 787 848 729 906 q 878 713 844 790 q 913 549 913 636 q 894 425 913 485 q 842 315 875 365 q 761 224 808 264 q 656 158 714 183 q 566 119 614 133 q 467 106 518 106 q 322 135 389 106 q 203 215 254 164 q 122 334 151 267 q 93 479 93 401 q 111 593 93 539 q 161 693 129 647 l 111 781 q 35 644 63 719 q 8 486 8 569 q 46 300 8 388 q 148 148 83 213 q 300 46 213 83 q 486 8 388 8 l 708 8 l 708 69 l 804 69 l 804 8 m 467 124 q 605 151 540 124 q 717 228 669 179 q 793 341 765 276 q 821 479 821 406 q 793 617 821 553 q 717 730 765 682 q 605 806 669 778 q 467 833 540 833 q 347 813 403 833 q 244 756 290 792 l 264 721 q 357 775 306 756 q 467 794 408 794 q 590 769 532 794 q 690 702 647 744 q 757 602 732 660 q 782 479 782 544 q 757 356 782 414 q 690 256 732 299 q 590 188 647 213 q 467 163 532 163 q 344 188 401 163 q 243 256 286 213 q 175 356 200 299 q 150 479 150 414 q 162 562 150 522 q 193 638 174 601 l 171 676 q 127 583 143 633 q 111 479 111 533 q 139 341 111 406 q 215 228 167 276 q 328 151 264 179 q 467 124 393 124 m 288 672 q 269 654 278 664 q 253 633 261 644 l 490 217 q 540 226 519 219 l 288 672 m 544 226 q 665 306 615 250 q 673 314 669 311 q 679 324 676 317 q 717 395 703 356 q 731 479 731 435 q 711 576 731 531 q 660 657 692 621 l 657 660 q 624 690 644 674 l 621 693 q 607 701 614 697 q 593 710 600 706 l 589 713 q 467 743 532 743 q 371 725 415 743 q 290 675 326 707 l 544 226 m 250 631 q 238 609 243 619 q 226 588 232 599 l 436 217 q 451 215 443 215 q 467 215 458 215 l 485 215 l 250 631 m 225 683 q 242 701 233 693 q 261 718 251 710 l 242 753 q 222 738 231 746 q 206 719 214 729 l 225 683 m 201 715 q 188 699 194 707 q 174 681 181 690 l 196 642 q 209 660 203 651 q 222 679 215 669 l 201 715 m 486 964 q 325 935 400 964 q 188 858 250 907 l 236 771 q 342 830 285 808 q 467 851 400 851 q 642 808 563 851 q 772 692 721 764 l 772 746 l 836 746 l 836 518 q 838 499 838 508 q 839 479 839 489 q 803 319 839 393 q 707 194 768 246 q 850 345 797 251 q 903 549 903 439 q 870 709 903 633 q 781 842 838 785 q 648 931 724 899 q 486 964 572 964 m 183 856 q 163 838 172 847 q 144 819 154 829 l 147 821 l 196 735 q 232 768 211 751 l 183 856 m 143 818 q 128 802 136 811 q 114 785 121 793 l 164 696 q 178 715 171 706 q 193 732 186 724 l 143 818 z "},"\\":{"ha":625,"x_min":0,"x_max":594,"o":"m 114 972 l 136 972 l 594 0 l 572 0 l 114 972 l 114 972 m 0 972 l 50 972 l 508 0 l 458 0 l 0 972 l 0 972 z "},":":{"ha":300,"x_min":0,"x_max":139,"o":"m 69 947 q 119 927 99 947 q 139 878 139 907 q 119 830 139 850 q 71 808 99 810 l 93 768 l 90 767 l 68 808 q 58 809 63 808 q 49 811 54 810 l 101 713 l 94 708 l 38 817 q 10 842 21 825 q 0 878 0 858 q 20 927 0 907 q 69 947 40 947 m 100 132 q 128 107 117 124 q 139 69 139 90 q 119 20 139 40 q 69 0 99 0 q 20 20 40 0 q 0 69 0 40 q 19 117 0 97 q 67 139 39 138 l 46 176 l 49 178 l 69 139 q 88 136 76 139 l 36 235 l 43 239 l 100 132 z "},";":{"ha":300,"x_min":0,"x_max":139,"o":"m 69 792 q 20 812 40 792 q 0 861 0 832 q 20 909 0 889 q 68 931 40 929 l 46 971 l 49 972 l 71 931 l 69 931 q 90 926 79 931 l 38 1026 l 44 1031 l 101 922 q 128 897 118 914 q 139 861 139 881 q 119 812 139 832 q 69 792 99 792 m 39 65 q 11 90 22 74 q 0 128 0 107 q 20 176 0 156 q 69 197 40 197 q 119 176 99 197 q 139 128 139 156 q 119 80 139 100 q 72 58 100 60 l 93 21 l 90 19 l 69 58 q 60 59 64 58 q 50 61 56 60 l 103 -37 l 96 -42 l 39 65 z "},"<":{"ha":621,"x_min":0,"x_max":410,"o":"m 231 549 l 231 479 l 190 479 l 190 549 l 231 549 l 231 549 m 300 549 l 300 479 l 260 479 l 260 549 l 300 549 l 300 549 m 0 457 l 0 568 l 331 818 l 331 760 l 43 538 l 71 517 l 410 775 l 410 768 l 75 514 l 410 258 l 410 253 l 71 510 l 42 488 l 331 264 l 331 206 l 0 457 z "},">":{"ha":621,"x_min":0,"x_max":410,"o":"m 179 549 l 179 479 l 219 479 l 219 549 l 179 549 l 179 549 m 110 549 l 110 479 l 150 479 l 150 549 l 110 549 l 110 549 m 410 457 l 79 206 l 79 264 l 368 488 l 339 510 l 0 253 l 0 258 l 335 514 l 0 768 l 0 775 l 339 517 l 367 538 l 79 760 l 79 818 l 408 569 l 410 457 l 410 457 z "},"=":{"ha":624,"x_min":0,"x_max":436,"o":"m 190 522 l 190 453 l 150 453 l 150 522 l 190 522 l 190 522 m 283 522 l 283 453 l 242 453 l 242 522 l 283 522 l 283 522 m 436 558 l 0 558 l 0 608 l 436 608 l 436 558 l 436 558 m 436 364 l 0 364 l 0 414 l 436 414 l 436 364 l 436 364 z "},"?":{"ha":776,"x_min":0,"x_max":497,"o":"m 160 329 l 160 340 l 160 588 l 271 374 l 269 214 l 161 214 l 160 329 m 222 132 q 269 113 250 132 q 288 67 288 94 q 269 19 288 39 q 222 0 250 0 q 175 19 194 0 q 156 67 156 39 q 175 113 156 94 q 222 132 194 132 m 497 718 q 483 633 497 674 q 442 561 468 593 q 382 506 417 529 q 306 472 347 482 l 328 432 l 321 428 l 297 471 l 276 467 l 325 375 l 322 374 l 274 467 q 260 465 267 465 q 247 465 254 465 l 325 318 l 322 317 l 243 465 l 243 471 l 243 475 q 293 481 271 475 l 160 732 l 165 736 l 261 554 q 268 556 264 556 q 275 557 272 556 l 275 879 q 238 883 256 883 q 142 853 185 883 q 82 774 100 824 l 76 776 q 140 858 96 826 q 238 889 183 889 q 267 886 253 889 q 294 879 281 883 l 301 876 q 321 867 311 872 l 321 950 q 243 963 283 963 q 172 952 207 963 q 108 922 138 942 q 56 874 79 901 q 19 814 33 847 l 22 814 q 37 808 31 814 q 43 793 43 801 q 37 777 43 783 q 22 771 31 771 q 0 793 0 771 q 6 807 0 801 q 99 927 33 882 q 243 972 164 972 q 342 952 296 972 q 423 898 389 932 q 477 817 457 864 q 497 718 497 771 m 328 581 q 382 639 361 603 q 403 718 403 675 q 382 799 403 763 q 328 857 361 835 l 328 581 m 301 567 q 311 571 307 569 q 321 575 315 572 l 321 861 q 301 871 311 867 l 301 567 m 300 482 q 374 513 340 492 q 433 566 408 535 q 473 636 458 597 q 488 718 488 675 q 442 859 488 797 q 328 947 397 921 l 328 863 q 386 802 364 840 q 408 718 408 764 q 386 635 408 674 q 328 574 364 597 l 324 572 q 264 550 297 557 l 300 482 z "},"[":{"ha":411,"x_min":-1,"x_max":293,"o":"m 293 972 l 293 889 l 82 889 l 82 83 l 293 83 l 293 0 l -1 0 l -1 972 l 293 972 m 153 114 l 126 114 l 126 858 l 153 858 l 153 114 m 213 115 l 185 115 l 185 860 l 213 860 l 213 115 z "},"]":{"ha":411,"x_min":0,"x_max":293,"o":"m 0 972 l 293 972 l 293 0 l 0 0 l 0 83 l 211 83 l 211 889 l 0 889 l 0 972 l 0 972 m 139 114 l 139 858 l 167 858 l 167 114 l 139 114 l 139 114 m 79 115 l 79 860 l 107 860 l 107 115 l 79 115 l 79 115 z "},"^":{"ha":718,"x_min":0,"x_max":613,"o":"m 343 742 l 274 742 l 274 782 l 343 782 l 343 742 l 343 742 m 343 672 l 274 672 l 274 713 l 343 713 l 343 672 l 343 672 m 251 972 l 363 972 l 613 642 l 554 642 l 332 929 l 311 901 l 569 563 l 563 563 l 308 897 l 53 563 l 47 563 l 304 901 l 282 931 l 58 642 l 0 642 l 251 972 z "},"_":{"ha":694,"x_min":0,"x_max":503,"o":"m 0 0 l 0 75 l 503 75 l 503 0 l 0 0 m 0 122 l 503 122 l 503 97 l 0 97 l 0 122 z "},"`":{"ha":431,"x_min":-6,"x_max":168,"o":"m 40 965 q 94 968 67 978 q 132 932 121 958 q 135 879 144 906 q 100 840 125 853 l 138 813 l 135 811 l 97 839 l 99 840 q 79 835 85 835 l 168 767 l 164 760 l 67 833 q 31 845 47 835 q 7 874 15 856 q 4 927 -6 900 q 40 965 14 954 z "},"{":{"ha":463,"x_min":0,"x_max":453,"o":"m 99 588 q 157 568 132 588 q 193 519 182 549 q 256 592 256 525 l 256 828 q 297 929 256 892 q 411 968 338 968 l 453 968 l 453 906 l 411 906 q 346 883 368 906 q 324 828 324 863 l 324 592 q 317 547 324 571 q 301 517 310 528 q 283 500 294 508 q 274 494 278 496 q 268 490 271 492 q 261 488 261 488 l 267 486 q 283 476 275 483 q 292 469 288 474 q 301 458 296 464 q 317 429 311 446 q 324 383 324 406 l 324 149 q 346 92 324 114 q 350 89 349 90 q 354 86 351 88 l 354 486 l 393 486 l 393 72 q 402 71 397 71 q 411 71 407 71 l 415 71 l 415 817 l 453 817 l 453 8 l 415 8 l 411 8 q 297 47 338 8 q 256 149 256 85 l 256 383 q 193 457 256 450 q 157 408 182 428 q 99 389 132 389 q 29 418 58 389 q 0 488 0 447 q 29 558 0 529 q 99 588 58 588 z "},"}":{"ha":463,"x_min":0,"x_max":453,"o":"m 354 588 q 424 558 396 588 q 453 488 453 529 q 424 418 453 447 q 354 389 396 389 q 297 408 322 389 q 261 457 271 428 q 199 383 199 450 l 199 149 q 157 47 199 85 q 42 8 117 8 l 39 8 l 0 8 l 0 817 l 39 817 l 39 71 l 42 71 q 61 72 56 71 l 61 486 l 100 486 l 100 86 q 104 89 103 88 q 108 92 106 90 q 131 149 131 114 l 131 383 q 138 429 131 406 q 153 458 142 447 q 171 476 161 469 q 186 486 181 485 l 193 488 q 186 490 192 488 q 180 494 183 492 q 171 500 176 496 q 153 517 161 506 q 138 547 144 528 q 131 592 131 571 l 131 828 q 108 883 131 863 q 42 906 86 906 l 0 906 l 0 968 l 42 968 q 157 929 117 968 q 199 828 199 892 l 199 592 q 261 519 199 525 q 297 568 271 549 q 354 588 322 588 z "},"|":{"ha":281,"x_min":0,"x_max":153,"o":"m 0 0 l 0 972 l 86 972 l 86 0 l 0 0 m 128 972 l 153 972 l 153 -8 l 128 -8 l 128 972 z "},"":{"ha":1038,"x_min":0,"x_max":549,"o":"m 150 542 l 542 542 l 542 485 l 150 485 l 150 468 l 542 468 l 542 457 l 150 457 l 150 424 l 542 424 l 542 321 l 150 321 l 150 121 l 542 121 l 542 89 l 150 89 l 150 64 l 542 64 l 542 0 l 0 0 l 0 64 l 71 64 l 71 457 l 0 457 l 0 468 l 71 468 l 71 485 l 0 485 l 0 542 l 71 542 l 71 685 l 74 685 q 103 797 78 744 q 169 889 128 850 q 264 950 210 928 q 379 972 318 972 q 524 936 456 972 q 542 917 535 929 q 549 889 549 904 q 533 851 549 867 q 493 835 517 835 q 453 851 469 835 q 438 889 438 867 q 452 926 438 911 q 488 944 467 942 q 379 964 433 964 q 220 919 292 964 q 113 799 149 874 l 114 799 l 114 542 l 118 542 l 118 610 l 118 613 l 208 613 l 208 596 l 150 596 l 150 583 l 208 583 l 208 567 l 150 567 l 150 542 m 106 457 l 83 457 l 83 64 l 106 64 l 106 457 m 106 485 l 83 485 l 83 468 l 106 468 l 106 485 m 106 783 q 82 685 83 736 l 83 685 l 83 542 l 106 542 l 106 783 m 118 457 l 114 457 l 114 64 l 118 64 l 118 457 m 118 485 l 114 485 l 114 468 l 118 468 l 118 485 z "},"":{"ha":796,"x_min":0,"x_max":549,"o":"m 150 121 l 542 121 l 542 89 l 150 89 l 150 64 l 542 64 l 542 0 l 0 0 l 0 64 l 71 64 l 71 457 l 0 457 l 0 468 l 71 468 l 71 485 l 0 485 l 0 542 l 71 542 l 71 685 l 74 685 q 103 797 78 744 q 169 889 128 850 q 264 950 210 928 q 379 972 318 972 q 524 936 456 972 l 522 936 q 541 917 533 929 q 549 889 549 904 q 533 850 549 865 q 493 835 517 835 q 453 850 469 835 q 438 889 438 865 q 452 926 438 911 q 488 944 467 942 q 379 964 433 964 q 220 919 292 964 q 113 799 149 874 l 114 799 l 114 542 l 118 542 l 118 610 l 118 613 l 208 613 l 208 596 l 150 596 l 150 583 l 208 583 l 208 567 l 150 567 l 150 542 l 313 542 l 313 485 l 150 485 l 150 468 l 313 468 l 313 457 l 150 457 l 150 121 m 106 457 l 83 457 l 83 64 l 106 64 l 106 457 m 106 485 l 83 485 l 83 468 l 106 468 l 106 485 m 106 783 q 82 685 83 736 l 83 685 l 83 542 l 106 542 l 106 783 m 118 457 l 114 457 l 114 64 l 118 64 l 118 457 m 118 485 l 114 485 l 114 468 l 118 468 l 118 485 z "},"B":{"ha":868,"x_min":0,"x_max":532,"o":"m 425 250 q 412 190 425 218 q 376 142 399 163 q 324 109 354 121 q 260 97 294 97 l 260 110 q 319 121 292 110 q 368 151 347 132 q 401 195 389 169 q 413 250 413 221 q 401 304 413 279 q 368 349 389 329 q 319 379 347 368 q 260 390 292 390 l 260 401 q 324 390 294 401 q 376 357 354 378 q 412 308 399 336 q 425 250 425 281 m 351 767 q 325 706 351 731 q 260 682 299 682 l 260 850 q 325 826 299 850 q 351 767 351 801 m 260 499 q 365 479 315 499 q 452 426 415 460 q 510 347 489 392 q 532 250 532 301 q 510 153 532 199 q 453 74 489 108 q 367 20 417 40 q 263 0 318 0 l 90 0 l 53 0 l 53 972 l 138 972 l 263 972 q 349 956 308 972 q 419 911 389 939 q 467 846 450 883 q 485 767 485 808 q 467 686 485 724 q 418 620 449 649 q 347 576 388 592 q 260 560 306 560 l 260 569 q 343 585 304 569 q 411 627 382 600 q 457 690 440 654 q 474 767 474 726 q 457 842 474 807 q 412 904 440 878 q 344 947 383 931 q 263 963 306 963 l 263 892 q 357 854 318 890 q 396 767 396 818 q 356 677 396 714 q 260 640 317 640 l 260 650 q 349 684 313 650 q 386 767 386 718 q 349 849 386 815 q 260 882 313 882 l 178 882 l 178 11 l 260 11 q 361 30 314 11 q 444 81 408 49 q 499 157 479 114 q 519 250 519 200 q 499 342 519 299 q 444 417 479 385 q 361 469 408 450 q 260 488 314 488 l 260 499 m 164 11 l 164 882 l 138 882 l 138 11 l 164 11 m 333 239 l 203 239 l 203 250 l 333 250 l 333 239 m 0 972 l 24 972 l 24 0 l 0 0 l 0 972 m 203 306 l 333 306 l 333 294 l 203 294 l 203 306 m 203 199 l 333 199 l 333 186 l 203 186 l 203 199 z "},"C":{"ha":1031,"x_min":0,"x_max":486,"o":"m 0 486 q 38 675 0 586 q 142 830 76 764 q 297 934 208 896 q 486 972 386 972 l 486 954 q 303 917 389 954 q 155 817 218 881 q 55 668 92 753 q 18 486 18 583 q 55 303 18 389 q 155 155 92 218 q 303 55 218 92 q 486 18 389 18 l 486 0 q 297 38 386 0 q 142 142 208 76 q 38 297 76 208 q 0 486 0 386 m 43 486 q 78 658 43 578 q 173 799 113 739 q 314 894 233 860 q 486 929 394 929 l 486 840 q 348 813 413 840 q 235 736 283 785 q 160 623 188 688 q 132 486 132 558 q 160 348 132 413 q 235 235 188 283 q 348 160 283 188 q 486 132 413 132 l 486 43 q 314 78 394 43 q 173 173 233 113 q 78 314 113 233 q 43 486 43 394 m 226 486 q 247 588 226 540 q 302 670 267 635 q 385 726 338 706 q 486 746 432 746 l 486 738 q 388 718 433 738 q 308 664 343 699 q 254 583 274 629 q 235 486 235 538 q 254 388 235 433 q 308 308 274 343 q 388 254 343 274 q 486 235 433 235 l 486 225 q 385 246 432 225 q 302 302 338 267 q 247 385 267 338 q 226 486 226 432 m 151 486 q 178 617 151 556 q 249 723 204 678 q 356 794 294 768 q 486 821 417 821 l 486 811 q 360 785 419 811 q 256 716 300 760 q 185 613 211 672 q 160 486 160 553 q 185 360 160 419 q 256 256 211 300 q 360 185 300 211 q 486 160 419 160 l 486 151 q 356 178 417 151 q 249 249 294 204 q 178 356 204 294 q 151 486 151 417 m 297 486 q 312 560 297 525 q 352 620 326 594 q 413 660 378 646 q 486 675 447 675 l 486 667 q 416 653 449 667 q 358 614 383 639 q 319 556 333 589 q 306 486 306 524 q 319 416 306 449 q 358 358 333 383 q 416 319 383 333 q 486 306 449 306 l 486 297 q 413 312 447 297 q 352 352 378 326 q 312 413 326 378 q 297 486 297 447 m 486 593 q 410 562 442 593 q 379 486 379 531 q 410 410 379 442 q 486 379 442 379 l 486 371 q 404 404 438 371 q 371 486 371 438 q 404 568 371 535 q 486 601 438 601 l 486 593 z "},"A":{"ha":1097,"x_min":0,"x_max":846,"o":"m 68 0 l 0 0 l 421 972 l 846 0 l 776 0 l 615 372 l 572 354 l 507 501 l 428 501 l 428 346 q 481 320 460 343 q 503 265 503 297 q 492 226 503 243 q 465 197 482 208 l 551 0 l 511 0 l 431 186 q 422 185 428 185 q 415 186 418 185 l 336 0 l 296 0 l 381 197 q 353 226 364 208 q 343 265 343 243 q 365 320 343 297 q 418 346 386 343 l 418 501 l 338 501 l 278 364 l 233 383 l 68 0 m 418 290 q 403 281 410 288 q 397 265 397 275 q 404 250 397 257 l 418 290 m 449 265 q 442 281 449 275 q 428 290 436 288 l 442 249 q 449 265 449 258 m 422 697 l 422 696 l 422 697 m 410 669 l 433 669 l 424 692 l 419 692 l 410 669 m 399 643 l 446 643 l 436 664 l 408 664 l 399 643 m 386 615 l 457 615 l 447 639 l 396 639 l 386 615 m 374 586 l 469 586 l 460 611 l 385 611 l 374 586 m 363 558 l 482 558 l 472 582 l 372 582 l 363 558 m 351 533 l 493 533 l 483 554 l 360 554 l 351 533 m 339 506 l 506 506 l 496 528 l 349 528 l 339 506 z "},"D":{"ha":972,"x_min":0,"x_max":682,"o":"m 222 972 q 403 928 319 968 q 549 824 488 889 q 647 671 611 758 q 682 486 682 583 q 667 365 682 424 q 623 253 651 306 q 554 158 594 201 q 465 82 514 114 l 446 69 q 340 21 396 39 q 221 0 285 3 l 217 0 l 0 0 l 0 972 l 217 972 l 222 972 m 217 14 q 264 18 240 15 q 310 28 288 21 l 310 944 q 264 954 288 951 q 217 958 240 957 l 217 14 m 465 97 q 614 263 558 161 q 669 486 669 364 q 646 634 669 564 q 580 763 622 704 q 479 865 538 821 q 351 932 421 908 l 351 40 q 388 55 371 47 q 424 72 406 63 l 424 713 l 465 713 l 465 97 z "}}}
